<svg width="22" height="15" viewBox="0 0 22 15" fill="none" xmlns="http://www.w3.org/2000/svg">
<g clip-path="url(#clip0_2085_6797)">
<g clip-path="url(#clip1_2085_6797)">
<g clip-path="url(#clip2_2085_6797)">
<path d="M7.23255 0.576172C9.03647 0.576172 10.6699 1.30768 11.8522 2.48991C13.0343 3.6721 13.7659 5.30559 13.7659 7.10951C13.7659 8.91342 13.0343 10.5469 11.8522 11.7291C10.6699 12.9113 9.03647 13.6428 7.23255 13.6428C5.42884 13.6428 3.79518 12.9113 2.61295 11.7291C1.43075 10.5469 0.699219 8.91322 0.699219 7.10951C0.699219 5.30559 1.43075 3.6721 2.61295 2.48991C3.79518 1.30768 5.42863 0.576172 7.23255 0.576172Z" fill="#999999"/>
<path d="M7.23244 1.07617C8.89843 1.07617 10.4069 1.7515 11.4986 2.84323C12.5901 3.93494 13.2656 5.44342 13.2656 7.10939C13.2656 8.77539 12.5902 10.2838 11.4986 11.3755C10.4069 12.4672 8.89843 13.1426 7.23244 13.1426C5.56644 13.1426 4.05796 12.4671 2.96625 11.3755C1.87455 10.2838 1.19922 8.77539 1.19922 7.10939C1.19922 5.44342 1.87465 3.93494 2.96625 2.84323C4.05796 1.7516 5.56644 1.07617 7.23244 1.07617Z" fill="white"/>
<path d="M7.23387 1.58789C10.2841 1.58789 12.7566 4.06065 12.7566 7.11083C12.7566 10.161 10.2841 12.6337 7.23387 12.6337C4.18357 12.6337 1.71094 10.161 1.71094 7.11083C1.71094 4.06065 4.18357 1.58789 7.23387 1.58789Z" fill="#003399"/>
<path d="M6.84229 11.6969L7.23291 11.4131L7.62351 11.6969L7.47433 11.2377L7.86493 10.9539H7.38213L7.23291 10.4947L7.08366 10.9539H6.60086L6.99145 11.2377L6.84229 11.6969ZM7.23291 2.51953L7.08366 2.97872H6.60086L6.99145 3.26257L6.84229 3.72174L7.23291 3.43795L7.62351 3.72174L7.47433 3.26252L7.86493 2.97872H7.38213L7.23291 2.51953ZM9.85875 10.4196L9.46815 10.7035L9.61729 11.1627L9.22669 10.8789L8.83603 11.1627L8.98524 10.7035L8.59458 10.4196H9.07746L9.22669 9.96043L9.37584 10.4196H9.85875ZM11.3183 8.96009L10.9277 9.24389L11.0768 9.70314L10.6862 9.41932L10.2955 9.70314L10.4448 9.24389L10.0541 8.96009H10.537L10.6862 8.50084L10.8355 8.96009H11.3183ZM10.6862 4.51327L10.8355 4.97252H11.3183L10.9277 5.25631L11.0768 5.71553L10.6862 5.43174L10.2955 5.71553L10.4448 5.25631L10.0541 4.97252H10.537L10.6862 4.51327ZM8.59458 3.51295H9.07746L9.22669 3.05371L9.37593 3.51295H9.85875L9.46805 3.79683L9.61729 4.25599L9.22669 3.9722L8.83603 4.25599L8.98524 3.79683L8.59458 3.51295ZM11.6111 7.70932L11.2205 7.42552L10.8298 7.70932L10.979 7.25009L10.5883 6.96631H11.0712L11.2205 6.50706L11.3697 6.96631H11.8525L11.4619 7.25015L11.6111 7.70932ZM4.60707 10.4196L4.99767 10.7035L4.84849 11.1627L5.23912 10.8789L5.62977 11.1627L5.48055 10.7035L5.87122 10.4196H5.38834L5.23912 9.96043L5.08993 10.4196H4.60707ZM3.14751 8.96009L3.53813 9.24389L3.38897 9.70314L3.77956 9.41932L4.17023 9.70314L4.02098 9.24389L4.41166 8.96009H3.92881L3.77956 8.50084L3.63032 8.96009H3.14751ZM3.77956 4.51327L3.63032 4.97252H3.14751L3.53813 5.25631L3.38897 5.71553L3.77956 5.43174L4.17023 5.71553L4.02098 5.25631L4.41166 4.97252H3.92881L3.77956 4.51327ZM5.87122 3.51295H5.38834L5.23912 3.05371L5.08987 3.51295H4.60707L4.99774 3.79683L4.84849 4.25599L5.23912 3.9722L5.62977 4.25599L5.48055 3.79683L5.87122 3.51295ZM2.85471 7.70932L3.24531 7.42552L3.63598 7.70932L3.48676 7.25009L3.87743 6.96631H3.39455L3.24531 6.50706L3.09609 6.96631H2.61328L3.00388 7.25015L2.85471 7.70932Z" fill="#FFCC02"/>
</g>
</g>
</g>
<g clip-path="url(#clip3_2085_6797)">
<g clip-path="url(#clip4_2085_6797)">
<g clip-path="url(#clip5_2085_6797)">
<mask id="mask0_2085_6797" style="mask-type:luminance" maskUnits="userSpaceOnUse" x="8" y="0" width="14" height="14">
<path d="M21.7659 0.576172H8.69922V13.6428H21.7659V0.576172Z" fill="white"/>
</mask>
<g mask="url(#mask0_2085_6797)">
<path d="M15.2326 0.576172C17.0364 0.576172 18.6699 1.3076 19.8521 2.48998C21.0344 3.6721 21.7659 5.30569 21.7659 7.10951C21.7659 8.91332 21.0344 10.5469 19.8521 11.729C18.6699 12.9114 17.0364 13.6428 15.2326 13.6428C13.4287 13.6428 11.7952 12.9114 10.613 11.729C9.43064 10.5469 8.69922 8.91332 8.69922 7.10951C8.69922 5.30569 9.43064 3.6721 10.613 2.48998C11.7952 1.3076 13.4287 0.576172 15.2326 0.576172Z" fill="#999999"/>
<path d="M15.2315 1.07227C16.8978 1.07227 18.4078 1.74806 19.4998 2.8401L19.5276 2.8702C20.6031 3.96046 21.2675 5.45726 21.2675 7.1082C21.2675 8.77497 20.5914 10.2845 19.4994 11.3765L19.469 11.4043C18.3787 12.4804 16.8812 13.1446 15.2315 13.1446C13.5668 13.1446 12.0572 12.4681 10.9649 11.3753C9.87162 10.2845 9.19531 8.77497 9.19531 7.1082C9.19531 5.44144 9.87111 3.93213 10.9631 2.8401C12.0552 1.74806 13.5647 1.07227 15.2315 1.07227Z" fill="white"/>
<path d="M15.2336 1.58789C16.2412 1.58789 17.1857 1.85789 17.9993 2.32901H12.4679C13.2816 1.85789 14.2261 1.58789 15.2336 1.58789ZM19.2108 3.27941C19.4446 3.52135 19.6554 3.78523 19.8417 4.06673H10.6254C10.8114 3.7837 11.0232 3.51905 11.2562 3.27941H19.2108ZM20.3442 5.01406C20.4488 5.2685 20.5346 5.53163 20.6004 5.80316H9.86687C9.93348 5.53213 10.0208 5.26978 10.1231 5.01406H20.3442ZM20.7443 6.75152C20.752 6.87096 20.7564 6.99065 20.7564 7.1106C20.7564 7.2553 20.7508 7.39898 20.7398 7.54063H9.72752C9.71681 7.39797 9.71094 7.25326 9.71094 7.1106C9.71094 6.98988 9.71528 6.87019 9.72293 6.75152H20.7443ZM20.583 8.48846C20.5139 8.75816 20.4242 9.02214 20.3146 9.27808H10.1527C10.0442 9.02237 9.95288 8.75771 9.88422 8.48846H20.583ZM19.7945 10.2254C19.5998 10.5097 19.3798 10.7756 19.1366 11.0184H11.3307C11.0883 10.7756 10.8675 10.5097 10.6728 10.2254H19.7945ZM17.8735 11.9629C17.086 12.3908 16.1851 12.6338 15.2336 12.6338C14.2774 12.6338 13.3778 12.3906 12.5938 11.9629H17.8735Z" fill="#B22234"/>
<path d="M15.544 1.59682V7.57916H9.7311C9.71757 7.42425 9.71094 7.26883 9.71094 7.1106C9.71094 4.0606 12.1834 1.58789 15.2336 1.58789C15.3378 1.58789 15.4414 1.5912 15.544 1.59682Z" fill="#3C3B6E"/>
<path d="M9.99655 5.35038L10.0216 5.42848L9.98072 5.39836L9.99655 5.35038ZM14.8274 6.62413L15.0318 7.25348L14.4969 6.86428H15.1576L14.6225 7.25348L14.8274 6.62413ZM14.8274 5.40781L15.0318 6.03613L14.4969 5.6477H15.1576L14.6225 6.03613L14.8274 5.40781ZM14.8274 4.19071L15.0318 4.81981L14.4969 4.43036H15.1576L14.6225 4.81981L14.8274 4.19071ZM14.8274 2.97439L15.0318 3.60271L14.4969 3.21404H15.1576L14.6225 3.60271L14.8274 2.97439ZM14.8274 1.75781L15.0318 2.38639L14.4969 1.99746H15.1576L14.6225 2.38639L14.8274 1.75781ZM14.1108 6.01597L14.3157 6.6448L13.7803 6.25561H14.441L13.9086 6.6448L14.1108 6.01597ZM14.1108 4.79939L14.3157 5.42848L13.7803 5.03903H14.441L13.9086 5.42848L14.1108 4.79939ZM14.1108 3.58307L14.3157 4.21139L13.7803 3.82271H14.441L13.9086 4.21139L14.1108 3.58307ZM14.1108 2.36572L14.3157 2.99482L13.7803 2.60562H14.441L13.9086 2.99482L14.1108 2.36572ZM13.3969 6.62413L13.6019 7.25348L13.0665 6.86428H13.7277L13.1925 7.25348L13.3969 6.62413ZM13.3969 5.40781L13.6019 6.03613L13.0665 5.6477H13.7277L13.1925 6.03613L13.3969 5.40781ZM13.3969 4.19071L13.6019 4.81981L13.0665 4.43036H13.7277L13.1925 4.81981L13.3969 4.19071ZM13.3969 2.97439L13.6019 3.60271L13.0665 3.21404H13.7277L13.1925 3.60271L13.3969 2.97439ZM13.4388 1.88517L13.6019 2.38639L13.0933 2.01685L13.1407 1.99746H13.7277L13.1925 2.38639L13.3449 1.91835L13.4388 1.88517ZM12.6806 6.01597L12.885 6.6448L12.3498 6.25561H13.0111L12.4756 6.6448L12.6806 6.01597ZM12.6806 4.79939L12.885 5.42848L12.3498 5.03903H13.0111L12.4756 5.42848L12.6806 4.79939ZM12.6806 3.58307L12.885 4.21139L12.3498 3.82271H13.0111L12.4756 4.21139L12.6806 3.58307ZM12.6806 2.36572L12.885 2.99482L12.3498 2.60562H13.0111L12.4756 2.99482L12.6806 2.36572ZM11.9668 6.62413L12.1689 7.25348L11.6365 6.86428H12.2973L11.7618 7.25348L11.9668 6.62413ZM11.9668 5.40781L12.1689 6.03613L11.6365 5.6477H12.2973L11.7618 6.03613L11.9668 5.40781ZM11.9668 4.19071L12.1689 4.81981L11.6365 4.43036H12.2973L11.7618 4.81981L11.9668 4.19071ZM11.9668 2.97439L12.1689 3.60271L11.6365 3.21404H12.2973L11.7618 3.60271L11.9668 2.97439ZM11.2501 6.01597L11.4551 6.6448L10.9199 6.25561H11.5809L11.0457 6.6448L11.2501 6.01597ZM11.2501 4.79939L11.4551 5.42848L10.9199 5.03903H11.5809L11.0457 5.42848L11.2501 4.79939ZM11.2501 3.58307L11.4551 4.21139L10.9199 3.82271H11.5809L11.0457 4.21139L11.2501 3.58307ZM10.534 6.62413L10.7384 7.25348L10.203 6.86428H10.8671L10.3291 7.25348L10.534 6.62413ZM10.534 5.40781L10.7384 6.03613L10.203 5.6477H10.8671L10.3291 6.03613L10.534 5.40781ZM10.5376 4.20169L10.7384 4.81981L10.3464 4.53474L10.4026 4.43036H10.8671L10.3291 4.81981L10.523 4.22466L10.5376 4.20169ZM9.8202 6.01597L10.0216 6.6448L9.75027 6.44651L9.73828 6.55548L10.1504 6.25561H9.77579C9.78805 6.17854 9.80182 6.10198 9.81714 6.02618L9.8202 6.01597ZM10.1122 5.03903H10.1504L10.0958 5.0791L10.1122 5.03903Z" fill="white"/>
</g>
</g>
</g>
</g>
<defs>
<clipPath id="clip0_2085_6797">
<rect width="14" height="14" fill="white" transform="translate(0 0.109375)"/>
</clipPath>
<clipPath id="clip1_2085_6797">
<rect width="14" height="14" fill="white" transform="translate(0 0.109375)"/>
</clipPath>
<clipPath id="clip2_2085_6797">
<rect width="14" height="13.0667" fill="white" transform="translate(0 0.576172)"/>
</clipPath>
<clipPath id="clip3_2085_6797">
<rect width="14" height="14" fill="white" transform="translate(8 0.109375)"/>
</clipPath>
<clipPath id="clip4_2085_6797">
<rect width="14" height="14" fill="white" transform="translate(8 0.109375)"/>
</clipPath>
<clipPath id="clip5_2085_6797">
<rect width="14" height="13.0667" fill="white" transform="translate(8 0.576172)"/>
</clipPath>
</defs>
</svg>
