<svg width="23" height="15" viewBox="0 0 23 15" fill="none" xmlns="http://www.w3.org/2000/svg">
<g clip-path="url(#clip0_2085_6799)">
<g clip-path="url(#clip1_2085_6799)">
<g clip-path="url(#clip2_2085_6799)">
<mask id="mask0_2085_6799" style="mask-type:luminance" maskUnits="userSpaceOnUse" x="1" y="0" width="14" height="14">
<path d="M14.676 0.576172H1.60938V13.6428H14.676V0.576172Z" fill="white"/>
</mask>
<g mask="url(#mask0_2085_6799)">
<path d="M8.14271 0.576172C9.94652 0.576172 11.5801 1.3076 12.7622 2.48998C13.9446 3.6721 14.676 5.30569 14.676 7.10951C14.676 8.91332 13.9446 10.5469 12.7622 11.729C11.5801 12.9114 9.94652 13.6428 8.14271 13.6428C6.33889 13.6428 4.70531 12.9114 3.52318 11.729C2.3408 10.5469 1.60938 8.91332 1.60938 7.10951C1.60938 5.30569 2.3408 3.6721 3.52318 2.48998C4.70531 1.3076 6.33889 0.576172 8.14271 0.576172Z" fill="#999999"/>
<path d="M8.14166 1.07227C9.80791 1.07227 11.318 1.74806 12.41 2.8401L12.4378 2.8702C13.5133 3.96046 14.1776 5.45726 14.1776 7.1082C14.1776 8.77497 13.5015 10.2845 12.4095 11.3765L12.3792 11.4043C11.2889 12.4804 9.79133 13.1446 8.14166 13.1446C6.47693 13.1446 4.96738 12.4681 3.87509 11.3753C2.78177 10.2845 2.10547 8.77497 2.10547 7.1082C2.10547 5.44144 2.78127 3.93213 3.8733 2.8401C4.96533 1.74806 6.4749 1.07227 8.14166 1.07227Z" fill="white"/>
<path d="M8.1438 1.58789C9.15137 1.58789 10.0959 1.85789 10.9095 2.32901H5.3781C6.19171 1.85789 7.13624 1.58789 8.1438 1.58789ZM12.1209 3.27941C12.3547 3.52135 12.5656 3.78523 12.7519 4.06673H3.53551C3.72155 3.7837 3.93338 3.51905 4.16638 3.27941H12.1209ZM13.2544 5.01406C13.359 5.2685 13.4448 5.53163 13.5106 5.80316H2.77703C2.84364 5.53213 2.93091 5.26978 3.03325 5.01406H13.2544ZM13.6545 6.75152C13.6621 6.87096 13.6665 6.99065 13.6665 7.1106C13.6665 7.2553 13.6609 7.39898 13.6499 7.54063H2.63768C2.62696 7.39797 2.62109 7.25326 2.62109 7.1106C2.62109 6.98988 2.62543 6.87019 2.63309 6.75152H13.6545ZM13.4932 8.48846C13.424 8.75816 13.3344 9.02214 13.2248 9.27808H3.06286C2.9544 9.02237 2.86303 8.75771 2.79438 8.48846H13.4932ZM12.7046 10.2254C12.5099 10.5097 12.29 10.7756 12.0467 11.0184H4.2409C3.99845 10.7756 3.7777 10.5097 3.58298 10.2254H12.7046ZM10.7836 11.9629C9.99611 12.3908 9.09522 12.6338 8.1438 12.6338C7.18754 12.6338 6.28793 12.3906 5.50393 11.9629H10.7836Z" fill="#B22234"/>
<path d="M8.45414 1.59682V7.57916H2.64125C2.62773 7.42425 2.62109 7.26883 2.62109 7.1106C2.62109 4.0606 5.09355 1.58789 8.1438 1.58789C8.24793 1.58789 8.35154 1.5912 8.45414 1.59682Z" fill="#3C3B6E"/>
<path d="M2.90671 5.35038L2.93171 5.42848L2.89088 5.39836L2.90671 5.35038ZM7.73754 6.62413L7.94197 7.25348L7.40705 6.86428H8.06778L7.53261 7.25348L7.73754 6.62413ZM7.73754 5.40781L7.94197 6.03613L7.40705 5.6477H8.06778L7.53261 6.03613L7.73754 5.40781ZM7.73754 4.19071L7.94197 4.81981L7.40705 4.43036H8.06778L7.53261 4.81981L7.73754 4.19071ZM7.73754 2.97439L7.94197 3.60271L7.40705 3.21404H8.06778L7.53261 3.60271L7.73754 2.97439ZM7.73754 1.75781L7.94197 2.38639L7.40705 1.99746H8.06778L7.53261 2.38639L7.73754 1.75781ZM7.02092 6.01597L7.22585 6.6448L6.69042 6.25561H7.35116L6.8188 6.6448L7.02092 6.01597ZM7.02092 4.79939L7.22585 5.42848L6.69042 5.03903H7.35116L6.8188 5.42848L7.02092 4.79939ZM7.02092 3.58307L7.22585 4.21139L6.69042 3.82271H7.35116L6.8188 4.21139L7.02092 3.58307ZM7.02092 2.36572L7.22585 2.99482L6.69042 2.60562H7.35116L6.8188 2.99482L7.02092 2.36572ZM6.3071 6.62413L6.51204 7.25348L5.97661 6.86428H6.63785L6.10268 7.25348L6.3071 6.62413ZM6.3071 5.40781L6.51204 6.03613L5.97661 5.6477H6.63785L6.10268 6.03613L6.3071 5.40781ZM6.3071 4.19071L6.51204 4.81981L5.97661 4.43036H6.63785L6.10268 4.81981L6.3071 4.19071ZM6.3071 2.97439L6.51204 3.60271L5.97661 3.21404H6.63785L6.10268 3.60271L6.3071 2.97439ZM6.34895 1.88517L6.51204 2.38639L6.00341 2.01685L6.05088 1.99746H6.63785L6.10268 2.38639L6.25504 1.91835L6.34895 1.88517ZM5.59073 6.01597L5.79515 6.6448L5.25998 6.25561H5.92123L5.3858 6.6448L5.59073 6.01597ZM5.59073 4.79939L5.79515 5.42848L5.25998 5.03903H5.92123L5.3858 5.42848L5.59073 4.79939ZM5.59073 3.58307L5.79515 4.21139L5.25998 3.82271H5.92123L5.3858 4.21139L5.59073 3.58307ZM5.59073 2.36572L5.79515 2.99482L5.25998 2.60562H5.92123L5.3858 2.99482L5.59073 2.36572ZM4.87691 6.62413L5.07904 7.25348L4.54668 6.86428H5.20741L4.67198 7.25348L4.87691 6.62413ZM4.87691 5.40781L5.07904 6.03613L4.54668 5.6477H5.20741L4.67198 6.03613L4.87691 5.40781ZM4.87691 4.19071L5.07904 4.81981L4.54668 4.43036H5.20741L4.67198 4.81981L4.87691 4.19071ZM4.87691 2.97439L5.07904 3.60271L4.54668 3.21404H5.20741L4.67198 3.60271L4.87691 2.97439ZM4.16029 6.01597L4.36522 6.6448L3.83005 6.25561H4.49104L3.95587 6.6448L4.16029 6.01597ZM4.16029 4.79939L4.36522 5.42848L3.83005 5.03903H4.49104L3.95587 5.42848L4.16029 4.79939ZM4.16029 3.58307L4.36522 4.21139L3.83005 3.82271H4.49104L3.95587 4.21139L4.16029 3.58307ZM3.44418 6.62413L3.6486 7.25348L3.11317 6.86428H3.77722L3.23925 7.25348L3.44418 6.62413ZM3.44418 5.40781L3.6486 6.03613L3.11317 5.6477H3.77722L3.23925 6.03613L3.44418 5.40781ZM3.44774 4.20169L3.6486 4.81981L3.2566 4.53474L3.31275 4.43036H3.77722L3.23925 4.81981L3.4332 4.22466L3.44774 4.20169ZM2.73036 6.01597L2.93171 6.6448L2.66043 6.44651L2.64844 6.55548L3.0606 6.25561H2.68595C2.6982 6.17854 2.71198 6.10198 2.72729 6.02618L2.73036 6.01597ZM3.02231 5.03903H3.0606L3.00598 5.0791L3.02231 5.03903Z" fill="white"/>
</g>
</g>
</g>
</g>
<g clip-path="url(#clip3_2085_6799)">
<g clip-path="url(#clip4_2085_6799)">
<g clip-path="url(#clip5_2085_6799)">
<mask id="mask1_2085_6799" style="mask-type:luminance" maskUnits="userSpaceOnUse" x="9" y="0" width="14" height="14">
<path d="M22.676 0.576172H9.60938V13.6428H22.676V0.576172Z" fill="white"/>
</mask>
<g mask="url(#mask1_2085_6799)">
<path d="M16.1427 0.576172C17.9465 0.576172 19.5801 1.3076 20.7622 2.48998C21.9446 3.6721 22.676 5.30569 22.676 7.10951C22.676 8.91332 21.9446 10.5469 20.7622 11.729C19.5801 12.9114 17.9465 13.6428 16.1427 13.6428C14.3389 13.6428 12.7053 12.9114 11.5232 11.729C10.3408 10.5469 9.60938 8.91332 9.60938 7.10951C9.60938 5.30569 10.3408 3.6721 11.5232 2.48998C12.7053 1.3076 14.3389 0.576172 16.1427 0.576172Z" fill="#999999"/>
<path d="M16.1422 1.07227C17.8084 1.07227 19.3182 1.74806 20.4102 2.8401L20.4383 2.8702C21.5138 3.96046 22.1781 5.45725 22.1781 7.10845C22.1781 8.77497 21.502 10.2845 20.41 11.3765L20.3796 11.4046C19.2891 12.4804 17.7918 13.1449 16.1422 13.1449C14.4754 13.1449 12.9658 12.4686 11.8738 11.3765C10.7818 10.2845 10.1055 8.7747 10.1055 7.10845C10.1055 5.44347 10.782 3.93417 11.8751 2.84163C12.9658 1.74831 14.4754 1.07227 16.1422 1.07227Z" fill="white"/>
<path d="M18.875 7.08204C18.875 5.57401 17.6523 4.35156 16.1445 4.35156C14.6365 4.35156 13.4141 5.57401 13.4141 7.08204C13.4141 8.58981 14.6365 9.81251 16.1445 9.81251C17.6523 9.81251 18.875 8.58981 18.875 7.08204Z" fill="#BC002D"/>
</g>
</g>
</g>
</g>
<defs>
<clipPath id="clip0_2085_6799">
<rect width="14" height="14" fill="white" transform="translate(0.910156 0.109375)"/>
</clipPath>
<clipPath id="clip1_2085_6799">
<rect width="14" height="14" fill="white" transform="translate(0.910156 0.109375)"/>
</clipPath>
<clipPath id="clip2_2085_6799">
<rect width="14" height="13.0667" fill="white" transform="translate(0.910156 0.576172)"/>
</clipPath>
<clipPath id="clip3_2085_6799">
<rect width="14" height="14" fill="white" transform="translate(8.91016 0.109375)"/>
</clipPath>
<clipPath id="clip4_2085_6799">
<rect width="14" height="14" fill="white" transform="translate(8.91016 0.109375)"/>
</clipPath>
<clipPath id="clip5_2085_6799">
<rect width="14" height="13.0667" fill="white" transform="translate(8.91016 0.576172)"/>
</clipPath>
</defs>
</svg>
