<svg width="23" height="15" viewBox="0 0 23 15" fill="none" xmlns="http://www.w3.org/2000/svg">
<g clip-path="url(#clip0_2085_6798)">
<g clip-path="url(#clip1_2085_6798)">
<g clip-path="url(#clip2_2085_6798)">
<mask id="mask0_2085_6798" style="mask-type:luminance" maskUnits="userSpaceOnUse" x="0" y="0" width="14" height="14">
<path d="M13.4299 0.576172H0.363281V13.6428H13.4299V0.576172Z" fill="white"/>
</mask>
<g mask="url(#mask0_2085_6798)">
<path d="M6.89661 0.576172C8.70043 0.576172 10.334 1.3076 11.5161 2.48998C12.6985 3.6721 13.4299 5.30569 13.4299 7.10951C13.4299 8.91332 12.6985 10.5469 11.5161 11.729C10.334 12.9114 8.70043 13.6428 6.89661 13.6428C5.0928 13.6428 3.45921 12.9114 2.27709 11.729C1.09471 10.5469 0.363281 8.91332 0.363281 7.10951C0.363281 5.30569 1.09471 3.6721 2.27709 2.48998C3.45921 1.3076 5.0928 0.576172 6.89661 0.576172Z" fill="#999999"/>
<path d="M6.89726 1.07227C8.56378 1.07227 10.0736 1.74806 11.1656 2.8401L11.1934 2.8702C12.2689 3.96021 12.9334 5.45726 12.9334 7.1082C12.9334 8.77497 12.2571 10.2845 11.1651 11.3765L11.135 11.4043C10.0445 12.4804 8.54718 13.1446 6.89726 13.1446C5.23254 13.1446 3.72324 12.4681 2.63069 11.3753C1.53737 10.2845 0.861328 8.77497 0.861328 7.1082C0.861328 5.44144 1.53712 3.93213 2.62916 2.8401C3.72119 1.74806 5.23075 1.07227 6.89726 1.07227Z" fill="white"/>
<path d="M6.89771 1.58789C9.94794 1.58789 12.4207 4.0606 12.4207 7.1106C12.4207 10.1608 9.94794 12.6338 6.89771 12.6338C3.84772 12.6338 1.375 10.1608 1.375 7.1106C1.375 4.0606 3.84772 1.58789 6.89771 1.58789Z" fill="#FEFEFE"/>
<path d="M5.04556 5.15863V1.90472C3.99104 2.27988 3.08428 2.96665 2.43555 3.85324L5.04556 5.15863ZM5.04556 9.06077V12.3147C3.99154 11.9396 3.08504 11.2533 2.4358 10.3661L5.04556 9.06077ZM8.73459 9.06077V12.3191C9.7924 11.9456 10.702 11.2589 11.3533 10.3707L8.73459 9.06077ZM8.73459 5.15863V1.90039C9.7924 2.27375 10.7025 2.96052 11.3536 3.8489L8.73459 5.15863Z" fill="#012169"/>
<path d="M11.8054 8.95243H10.5776L11.837 9.58331C11.919 9.41972 11.993 9.25154 12.0588 9.07927L11.8054 8.95243ZM11.567 4.16064L9.36149 5.26647H10.5893L11.8385 4.6412C11.7561 4.47633 11.6653 4.31581 11.567 4.16064ZM5.78525 8.21488V12.5215C6.14459 12.5948 6.51668 12.6338 6.89771 12.6338C7.27439 12.6338 7.64266 12.5958 7.99842 12.5241V8.21488H12.3099C12.3822 7.8581 12.4207 7.48907 12.4207 7.1106C12.4207 6.73085 12.3822 6.35977 12.3092 6.0012H7.99842V1.69788C7.6361 1.62465 7.26736 1.5878 6.89771 1.58789C6.51668 1.58789 6.14459 1.62719 5.78525 1.70018V6.0012H1.48652C1.41226 6.36633 1.3749 6.738 1.375 7.1106C1.375 7.48907 1.41354 7.8581 1.48576 8.21488H5.78525ZM1.97525 5.26927H3.20305L1.95535 4.64452C1.87368 4.80811 1.79941 4.9768 1.73382 5.14881L1.97525 5.26927ZM4.42193 8.95524H3.19412L1.95458 9.57566C2.03737 9.74124 2.12842 9.90257 2.22739 10.059L4.43316 8.95524H4.42193Z" fill="#C8102E"/>
</g>
</g>
</g>
</g>
<g clip-path="url(#clip3_2085_6798)">
<g clip-path="url(#clip4_2085_6798)">
<g clip-path="url(#clip5_2085_6798)">
<mask id="mask1_2085_6798" style="mask-type:luminance" maskUnits="userSpaceOnUse" x="8" y="0" width="14" height="14">
<path d="M21.8967 0.576172H8.83008V13.6428H21.8967V0.576172Z" fill="white"/>
</mask>
<g mask="url(#mask1_2085_6798)">
<path d="M15.3634 0.576172C17.1672 0.576172 18.8008 1.3076 19.9829 2.48998C21.1653 3.6721 21.8967 5.30569 21.8967 7.10951C21.8967 8.91332 21.1653 10.5469 19.9829 11.729C18.8008 12.9114 17.1672 13.6428 15.3634 13.6428C13.5596 13.6428 11.926 12.9114 10.7439 11.729C9.5615 10.5469 8.83008 8.91332 8.83008 7.10951C8.83008 5.30569 9.5615 3.6721 10.7439 2.48998C11.926 1.3076 13.5596 0.576172 15.3634 0.576172Z" fill="#999999"/>
<path d="M15.3643 1.07227C17.0306 1.07227 18.5406 1.74806 19.6326 2.8401L19.6605 2.8702C20.7359 3.96046 21.4003 5.45726 21.4003 7.1082C21.4003 8.77497 20.7242 10.2845 19.6322 11.3765L19.6018 11.4043C18.5115 12.4804 17.014 13.1446 15.3643 13.1446C13.6996 13.1446 12.19 12.4681 11.0977 11.3753C10.0044 10.2845 9.32812 8.77497 9.32812 7.1082C9.32812 5.44144 10.0039 3.93213 11.096 2.8401C12.188 1.74806 13.6976 1.07227 15.3643 1.07227Z" fill="white"/>
<path d="M15.3626 1.58789C16.3701 1.58789 17.3146 1.85789 18.1282 2.32901H12.5969C13.4105 1.85789 14.355 1.58789 15.3626 1.58789ZM19.3397 3.27941C19.5735 3.52135 19.7843 3.78523 19.9706 4.06673H10.7543C10.9403 3.7837 11.1521 3.51905 11.3851 3.27941H19.3397ZM20.4731 5.01406C20.5777 5.2685 20.6635 5.53163 20.7293 5.80316H9.99578C10.0624 5.53213 10.1497 5.26978 10.252 5.01406H20.4731ZM20.8732 6.75152C20.8809 6.87096 20.8853 6.99065 20.8853 7.1106C20.8853 7.2553 20.8797 7.39898 20.8687 7.54063H9.85643C9.84571 7.39797 9.83984 7.25326 9.83984 7.1106C9.83984 6.98988 9.84418 6.87019 9.85184 6.75152H20.8732ZM20.712 8.48846C20.6428 8.75816 20.5531 9.02214 20.4435 9.27808H10.2816C10.1731 9.02237 10.0818 8.75771 10.0131 8.48846H20.712ZM19.9234 10.2254C19.7287 10.5097 19.5087 10.7756 19.2655 11.0184H11.4597C11.2172 10.7756 10.9964 10.5097 10.8017 10.2254H19.9234ZM18.0024 11.9629C17.2149 12.3908 16.314 12.6338 15.3626 12.6338C14.4063 12.6338 13.5067 12.3906 12.7227 11.9629H18.0024Z" fill="#B22234"/>
<path d="M15.6729 1.59682V7.57916H9.86C9.84648 7.42425 9.83984 7.26883 9.83984 7.1106C9.83984 4.0606 12.3123 1.58789 15.3626 1.58789C15.4667 1.58789 15.5703 1.5912 15.6729 1.59682Z" fill="#3C3B6E"/>
<path d="M10.1274 5.35038L10.1524 5.42848L10.1116 5.39836L10.1274 5.35038ZM14.9582 6.62413L15.1627 7.25348L14.6278 6.86428H15.2885L14.7533 7.25348L14.9582 6.62413ZM14.9582 5.40781L15.1627 6.03613L14.6278 5.6477H15.2885L14.7533 6.03613L14.9582 5.40781ZM14.9582 4.19071L15.1627 4.81981L14.6278 4.43036H15.2885L14.7533 4.81981L14.9582 4.19071ZM14.9582 2.97439L15.1627 3.60271L14.6278 3.21404H15.2885L14.7533 3.60271L14.9582 2.97439ZM14.9582 1.75781L15.1627 2.38639L14.6278 1.99746H15.2885L14.7533 2.38639L14.9582 1.75781ZM14.2416 6.01597L14.4466 6.6448L13.9111 6.25561H14.5719L14.0395 6.6448L14.2416 6.01597ZM14.2416 4.79939L14.4466 5.42848L13.9111 5.03903H14.5719L14.0395 5.42848L14.2416 4.79939ZM14.2416 3.58307L14.4466 4.21139L13.9111 3.82271H14.5719L14.0395 4.21139L14.2416 3.58307ZM14.2416 2.36572L14.4466 2.99482L13.9111 2.60562H14.5719L14.0395 2.99482L14.2416 2.36572ZM13.5278 6.62413L13.7327 7.25348L13.1973 6.86428H13.8586L13.3234 7.25348L13.5278 6.62413ZM13.5278 5.40781L13.7327 6.03613L13.1973 5.6477H13.8586L13.3234 6.03613L13.5278 5.40781ZM13.5278 4.19071L13.7327 4.81981L13.1973 4.43036H13.8586L13.3234 4.81981L13.5278 4.19071ZM13.5278 2.97439L13.7327 3.60271L13.1973 3.21404H13.8586L13.3234 3.60271L13.5278 2.97439ZM13.5697 1.88517L13.7327 2.38639L13.2241 2.01685L13.2716 1.99746H13.8586L13.3234 2.38639L13.4757 1.91835L13.5697 1.88517ZM12.8114 6.01597L13.0159 6.6448L12.4807 6.25561H13.1419L12.6065 6.6448L12.8114 6.01597ZM12.8114 4.79939L13.0159 5.42848L12.4807 5.03903H13.1419L12.6065 5.42848L12.8114 4.79939ZM12.8114 3.58307L13.0159 4.21139L12.4807 3.82271H13.1419L12.6065 4.21139L12.8114 3.58307ZM12.8114 2.36572L13.0159 2.99482L12.4807 2.60562H13.1419L12.6065 2.99482L12.8114 2.36572ZM12.0976 6.62413L12.2997 7.25348L11.7674 6.86428H12.4281L11.8927 7.25348L12.0976 6.62413ZM12.0976 5.40781L12.2997 6.03613L11.7674 5.6477H12.4281L11.8927 6.03613L12.0976 5.40781ZM12.0976 4.19071L12.2997 4.81981L11.7674 4.43036H12.4281L11.8927 4.81981L12.0976 4.19071ZM12.0976 2.97439L12.2997 3.60271L11.7674 3.21404H12.4281L11.8927 3.60271L12.0976 2.97439ZM11.381 6.01597L11.5859 6.6448L11.0507 6.25561H11.7117L11.1766 6.6448L11.381 6.01597ZM11.381 4.79939L11.5859 5.42848L11.0507 5.03903H11.7117L11.1766 5.42848L11.381 4.79939ZM11.381 3.58307L11.5859 4.21139L11.0507 3.82271H11.7117L11.1766 4.21139L11.381 3.58307ZM10.6649 6.62413L10.8693 7.25348L10.3339 6.86428H10.9979L10.4599 7.25348L10.6649 6.62413ZM10.6649 5.40781L10.8693 6.03613L10.3339 5.6477H10.9979L10.4599 6.03613L10.6649 5.40781ZM10.6684 4.20169L10.8693 4.81981L10.4773 4.53474L10.5334 4.43036H10.9979L10.4599 4.81981L10.6539 4.22466L10.6684 4.20169ZM9.95106 6.01597L10.1524 6.6448L9.88113 6.44651L9.86914 6.55548L10.2813 6.25561H9.90665C9.91891 6.17854 9.93268 6.10198 9.948 6.02618L9.95106 6.01597ZM10.243 5.03903H10.2813L10.2267 5.0791L10.243 5.03903Z" fill="white"/>
</g>
</g>
</g>
</g>
<defs>
<clipPath id="clip0_2085_6798">
<rect width="14" height="14" fill="white" transform="translate(0.130859 0.109375)"/>
</clipPath>
<clipPath id="clip1_2085_6798">
<rect width="14" height="14" fill="white" transform="translate(0.130859 0.109375)"/>
</clipPath>
<clipPath id="clip2_2085_6798">
<rect width="14" height="13.0667" fill="white" transform="translate(0.130859 0.576172)"/>
</clipPath>
<clipPath id="clip3_2085_6798">
<rect width="14" height="14" fill="white" transform="translate(8.13086 0.109375)"/>
</clipPath>
<clipPath id="clip4_2085_6798">
<rect width="14" height="14" fill="white" transform="translate(8.13086 0.109375)"/>
</clipPath>
<clipPath id="clip5_2085_6798">
<rect width="14" height="13.0667" fill="white" transform="translate(8.13086 0.576172)"/>
</clipPath>
</defs>
</svg>
