<svg width="23" height="15" viewBox="0 0 23 15" fill="none" xmlns="http://www.w3.org/2000/svg">
<g clip-path="url(#clip0_2085_6800)">
<g clip-path="url(#clip1_2085_6800)">
<g clip-path="url(#clip2_2085_6800)">
<path d="M7.37318 0.576172C9.1771 0.576172 10.8106 1.30768 11.9928 2.48991C13.175 3.6721 13.9065 5.30559 13.9065 7.10951C13.9065 8.91342 13.175 10.5469 11.9928 11.7291C10.8106 12.9113 9.1771 13.6428 7.37318 13.6428C5.56946 13.6428 3.9358 12.9113 2.75358 11.7291C1.57137 10.5469 0.839844 8.91322 0.839844 7.10951C0.839844 5.30559 1.57137 3.6721 2.75358 2.48991C3.9358 1.30768 5.56926 0.576172 7.37318 0.576172Z" fill="#999999"/>
<path d="M7.37307 1.07617C9.03905 1.07617 10.5475 1.7515 11.6392 2.84323C12.7307 3.93494 13.4062 5.44342 13.4062 7.10939C13.4062 8.77539 12.7308 10.2838 11.6392 11.3755C10.5475 12.4672 9.03905 13.1426 7.37307 13.1426C5.70707 13.1426 4.19859 12.4671 3.10688 11.3755C2.01518 10.2838 1.33984 8.77539 1.33984 7.10939C1.33984 5.44342 2.01528 3.93494 3.10688 2.84323C4.19859 1.7516 5.70707 1.07617 7.37307 1.07617Z" fill="white"/>
<path d="M7.3745 1.58789C10.4247 1.58789 12.8973 4.06065 12.8973 7.11083C12.8973 10.161 10.4247 12.6337 7.3745 12.6337C4.3242 12.6337 1.85156 10.161 1.85156 7.11083C1.85156 4.06065 4.3242 1.58789 7.3745 1.58789Z" fill="#003399"/>
<path d="M6.98291 11.6969L7.37353 11.4131L7.76413 11.6969L7.61496 11.2377L8.00556 10.9539H7.52275L7.37353 10.4947L7.22428 10.9539H6.74149L7.13208 11.2377L6.98291 11.6969ZM7.37353 2.51953L7.22428 2.97872H6.74149L7.13208 3.26257L6.98291 3.72174L7.37353 3.43795L7.76413 3.72174L7.61496 3.26252L8.00556 2.97872H7.52275L7.37353 2.51953ZM9.99937 10.4196L9.60877 10.7035L9.75792 11.1627L9.36732 10.8789L8.97665 11.1627L9.12587 10.7035L8.7352 10.4196H9.21808L9.36732 9.96043L9.51647 10.4196H9.99937ZM11.4589 8.96009L11.0683 9.24389L11.2175 9.70314L10.8269 9.41932L10.4362 9.70314L10.5854 9.24389L10.1947 8.96009H10.6776L10.8269 8.50084L10.9761 8.96009H11.4589ZM10.8269 4.51327L10.9761 4.97252H11.4589L11.0683 5.25631L11.2175 5.71553L10.8269 5.43174L10.4362 5.71553L10.5854 5.25631L10.1947 4.97252H10.6776L10.8269 4.51327ZM8.7352 3.51295H9.21808L9.36732 3.05371L9.51656 3.51295H9.99937L9.60868 3.79683L9.75792 4.25599L9.36732 3.9722L8.97665 4.25599L9.12587 3.79683L8.7352 3.51295ZM11.7517 7.70932L11.3611 7.42552L10.9704 7.70932L11.1197 7.25009L10.729 6.96631H11.2119L11.3611 6.50706L11.5103 6.96631H11.9932L11.6026 7.25015L11.7517 7.70932ZM4.74769 10.4196L5.13829 10.7035L4.98912 11.1627L5.37975 10.8789L5.77039 11.1627L5.62117 10.7035L6.01185 10.4196H5.52897L5.37975 9.96043L5.23055 10.4196H4.74769ZM3.28814 8.96009L3.67876 9.24389L3.52959 9.70314L3.92018 9.41932L4.31086 9.70314L4.16161 9.24389L4.55228 8.96009H4.06943L3.92018 8.50084L3.77094 8.96009H3.28814ZM3.92018 4.51327L3.77094 4.97252H3.28814L3.67876 5.25631L3.52959 5.71553L3.92018 5.43174L4.31086 5.71553L4.16161 5.25631L4.55228 4.97252H4.06943L3.92018 4.51327ZM6.01185 3.51295H5.52897L5.37975 3.05371L5.2305 3.51295H4.74769L5.13837 3.79683L4.98912 4.25599L5.37975 3.9722L5.77039 4.25599L5.62117 3.79683L6.01185 3.51295ZM2.99533 7.70932L3.38593 7.42552L3.77661 7.70932L3.62738 7.25009L4.01805 6.96631H3.53517L3.38593 6.50706L3.23671 6.96631H2.75391L3.14451 7.25015L2.99533 7.70932Z" fill="#FFCC02"/>
</g>
</g>
</g>
<g clip-path="url(#clip3_2085_6800)">
<g clip-path="url(#clip4_2085_6800)">
<g clip-path="url(#clip5_2085_6800)">
<mask id="mask0_2085_6800" style="mask-type:luminance" maskUnits="userSpaceOnUse" x="8" y="0" width="14" height="14">
<path d="M21.4397 0.576172H8.37305V13.6428H21.4397V0.576172Z" fill="white"/>
</mask>
<g mask="url(#mask0_2085_6800)">
<path d="M14.9064 0.576172C16.7102 0.576172 18.3438 1.3076 19.5259 2.48998C20.7083 3.6721 21.4397 5.30569 21.4397 7.10951C21.4397 8.91332 20.7083 10.5469 19.5259 11.729C18.3438 12.9114 16.7102 13.6428 14.9064 13.6428C13.1026 13.6428 11.469 12.9114 10.2869 11.729C9.10447 10.5469 8.37305 8.91332 8.37305 7.10951C8.37305 5.30569 9.10447 3.6721 10.2869 2.48998C11.469 1.3076 13.1026 0.576172 14.9064 0.576172Z" fill="#999999"/>
<path d="M14.907 1.07227C16.5735 1.07227 18.0833 1.74806 19.1753 2.8401L19.2032 2.8702C20.2786 3.96021 20.9432 5.45726 20.9432 7.1082C20.9432 8.77497 20.2669 10.2845 19.1749 11.3765L19.1447 11.4043C18.0542 12.4804 16.5569 13.1446 14.907 13.1446C13.2423 13.1446 11.733 12.4681 10.6405 11.3753C9.54714 10.2845 8.87109 8.77497 8.87109 7.1082C8.87109 5.44144 9.54689 3.93213 10.6389 2.8401C11.731 1.74806 13.2405 1.07227 14.907 1.07227Z" fill="white"/>
<path d="M14.9055 1.58789C17.9557 1.58789 20.4285 4.0606 20.4285 7.1106C20.4285 10.1608 17.9557 12.6338 14.9055 12.6338C11.8555 12.6338 9.38281 10.1608 9.38281 7.1106C9.38281 4.0606 11.8555 1.58789 14.9055 1.58789Z" fill="#FEFEFE"/>
<path d="M13.0553 5.15863V1.90472C12.0008 2.27988 11.094 2.96665 10.4453 3.85324L13.0553 5.15863ZM13.0553 9.06077V12.3147C12.0013 11.9396 11.0948 11.2533 10.4456 10.3661L13.0553 9.06077ZM16.7444 9.06077V12.3191C17.8022 11.9456 18.7118 11.2589 19.3631 10.3707L16.7444 9.06077ZM16.7444 5.15863V1.90039C17.8022 2.27375 18.7123 2.96052 19.3633 3.8489L16.7444 5.15863Z" fill="#012169"/>
<path d="M19.8132 8.95243H18.5854L19.8448 9.58331C19.9268 9.41972 20.0008 9.25154 20.0666 9.07927L19.8132 8.95243ZM19.5748 4.16064L17.3693 5.26647H18.5971L19.8463 4.6412C19.7639 4.47633 19.6731 4.31581 19.5748 4.16064ZM13.7931 8.21488V12.5215C14.1524 12.5948 14.5245 12.6338 14.9055 12.6338C15.2822 12.6338 15.6505 12.5958 16.0062 12.5241V8.21488H20.3177C20.39 7.8581 20.4285 7.48907 20.4285 7.1106C20.4285 6.73085 20.39 6.35977 20.317 6.0012H16.0062V1.69788C15.6439 1.62465 15.2752 1.5878 14.9055 1.58789C14.5245 1.58789 14.1524 1.62719 13.7931 1.70018V6.0012H9.49434C9.42007 6.36633 9.38271 6.738 9.38281 7.1106C9.38281 7.48907 9.42135 7.8581 9.49357 8.21488H13.7931ZM9.98306 5.26927H11.2109L9.96316 4.64452C9.88149 4.80811 9.80723 4.9768 9.74163 5.14881L9.98306 5.26927ZM12.4297 8.95524H11.2019L9.96239 9.57566C10.0452 9.74124 10.1362 9.90257 10.2352 10.059L12.441 8.95524H12.4297Z" fill="#C8102E"/>
</g>
</g>
</g>
</g>
<defs>
<clipPath id="clip0_2085_6800">
<rect width="14" height="14" fill="white" transform="translate(0.140625 0.109375)"/>
</clipPath>
<clipPath id="clip1_2085_6800">
<rect width="14" height="14" fill="white" transform="translate(0.140625 0.109375)"/>
</clipPath>
<clipPath id="clip2_2085_6800">
<rect width="14" height="13.0667" fill="white" transform="translate(0.140625 0.576172)"/>
</clipPath>
<clipPath id="clip3_2085_6800">
<rect width="14" height="14" fill="white" transform="translate(8.14062 0.109375)"/>
</clipPath>
<clipPath id="clip4_2085_6800">
<rect width="14" height="14" fill="white" transform="translate(8.14062 0.109375)"/>
</clipPath>
<clipPath id="clip5_2085_6800">
<rect width="14" height="13.0667" fill="white" transform="translate(8.14062 0.576172)"/>
</clipPath>
</defs>
</svg>
