<svg width="61" height="61" viewBox="0 0 61 61" fill="none" xmlns="http://www.w3.org/2000/svg">
<g clip-path="url(#clip0_2024_7603)">
<mask id="mask0_2024_7603" style="mask-type:luminance" maskUnits="userSpaceOnUse" x="0" y="0" width="61" height="61">
<path d="M50.3418 0.0175781H10.3418C4.81895 0.0175781 0.341797 4.49473 0.341797 10.0176V50.0176C0.341797 55.5404 4.81895 60.0176 10.3418 60.0176H50.3418C55.8646 60.0176 60.3418 55.5404 60.3418 50.0176V10.0176C60.3418 4.49473 55.8646 0.0175781 50.3418 0.0175781Z" fill="white"/>
</mask>
<g mask="url(#mask0_2024_7603)">
<path d="M50.3418 0.0175781H10.3418C4.81895 0.0175781 0.341797 4.49473 0.341797 10.0176V50.0176C0.341797 55.5404 4.81895 60.0176 10.3418 60.0176H50.3418C55.8646 60.0176 60.3418 55.5404 60.3418 50.0176V10.0176C60.3418 4.49473 55.8646 0.0175781 50.3418 0.0175781Z" fill="#EEF2F9"/>
<path fill-rule="evenodd" clip-rule="evenodd" d="M22.9261 13.6645C22.9133 13.6629 22.9004 13.6621 22.8875 13.6621H25.8115C31.8799 13.6621 36.8067 18.5889 36.8067 24.6572C36.8067 24.6572 36.294 25.0525 36.1926 25.0651C36.1656 25.0685 36.1383 25.0685 36.1114 25.0651C35.3751 24.9735 34.6311 24.9604 33.892 25.0259C33.8824 25.0268 33.8727 25.0272 33.863 25.0271C33.863 25.0271 33.775 25.0413 33.6718 24.9656C33.6718 24.9656 33.4844 24.7593 33.4844 24.6572C33.4844 18.9505 28.8514 14.3175 23.1447 14.3175L22.8902 14.3206C22.8039 14.3207 22.7211 14.2868 22.6597 14.2261C22.5983 14.1654 22.5634 14.083 22.5625 13.9967C22.5615 13.9105 22.5945 13.8273 22.6543 13.7653C22.7142 13.7032 22.7961 13.6673 22.8823 13.6653L22.9261 13.6645Z" fill="#213BF1"/>
<path fill-rule="evenodd" clip-rule="evenodd" d="M34.1398 24.6597V24.6572C34.1398 18.5889 29.213 13.6621 23.1448 13.6621C17.0763 13.6621 12.1496 18.5889 12.1496 24.6572C12.1496 26.323 12.521 27.9028 13.1849 29.3179L13.1871 29.3226C13.3574 29.6711 13.4428 30.0549 13.4364 30.4428C13.4299 30.8306 13.3318 31.2113 13.15 31.554L13.1451 31.5636C12.8175 32.2343 12.389 32.8572 11.859 33.3402L11.8526 33.346C11.7508 33.4301 11.6797 33.5453 11.6501 33.674C11.6205 33.8026 11.6341 33.9374 11.6888 34.0575C11.7436 34.1776 11.8364 34.2763 11.9529 34.3383C12.0694 34.4003 12.2031 34.4222 12.3333 34.4005C13.3147 34.2498 14.7367 34.0323 16.1701 33.8649C16.7057 33.8049 17.2463 33.9207 17.7102 34.1949L17.7117 34.1959C19.3075 35.1281 21.1654 35.6524 23.1448 35.6524C23.4941 35.6524 23.8399 35.636 24.1819 35.6039C24.2628 35.5963 24.3381 35.5588 24.393 35.4988C24.4479 35.4387 24.4785 35.3604 24.4788 35.2791C24.5018 29.922 28.6079 25.5209 33.8425 25.0304L33.812 25.0319C33.812 25.0319 34.1387 25.0032 34.1396 24.7042L34.1398 24.6597Z" fill="#3D74F4"/>
<path fill-rule="evenodd" clip-rule="evenodd" d="M45.6778 44.5035C45.6778 44.5035 45.8235 44.7038 45.9449 44.7205C46.837 44.8427 47.6611 44.9688 48.301 45.0672C48.4319 45.0881 48.5659 45.0651 48.6823 45.0018C48.7987 44.9385 48.8908 44.8384 48.9442 44.7172C48.9971 44.5976 49.0096 44.4641 48.9797 44.3368C48.9497 44.2096 48.8791 44.0956 48.7784 44.0121C48.2453 43.5284 47.8146 42.9031 47.4857 42.2297C47.3015 41.8863 47.2017 41.5039 47.1943 41.1143C47.187 40.7246 47.2724 40.3388 47.4436 39.9886L47.4458 39.9841C48.1099 38.5688 48.4811 36.989 48.4811 35.3232C48.4811 29.2549 43.5544 24.3281 37.4861 24.3281C37.0207 24.3281 36.5621 24.3571 36.1119 24.4134C36.0325 24.4231 35.9594 24.4616 35.9064 24.5215C35.8534 24.5814 35.8242 24.6587 35.8242 24.7387C35.8242 24.8187 35.8535 24.8959 35.9065 24.9558C35.9596 25.0157 36.0327 25.0541 36.1121 25.0638C41.2095 25.7006 45.1589 30.0544 45.1589 35.3232C45.1589 36.889 44.8102 38.3739 44.1863 39.7042C43.9718 40.1444 43.8642 40.629 43.8721 41.1186C43.8801 41.6082 44.0035 42.089 44.2322 42.522C44.5992 43.272 45.0831 43.9657 45.6778 44.5035Z" fill="#079FEB"/>
<path fill-rule="evenodd" clip-rule="evenodd" d="M41.8864 44.5418C43.2429 44.7022 44.5809 44.9056 45.5396 45.0505C45.6757 45.0721 45.8151 45.0483 45.9363 44.9828C46.0575 44.9173 46.1538 44.8138 46.2104 44.6882C46.2664 44.5643 46.2807 44.4255 46.2512 44.2928C46.2216 44.16 46.1499 44.0404 46.0466 43.9519C45.5876 43.5185 45.2063 42.9801 44.9147 42.3921L44.9079 42.3793C44.6972 41.9975 44.5804 41.5711 44.5669 41.1353C44.5534 40.6994 44.6438 40.2666 44.8305 39.8725L44.8327 39.868C45.463 38.4826 45.8144 36.9437 45.8144 35.3232C45.8144 29.2549 40.8877 24.3281 34.8193 24.3281C28.751 24.3281 23.8242 29.2549 23.8242 35.3232C23.8242 41.3916 28.751 46.3183 34.8193 46.3183C36.7678 46.3183 38.5985 45.8103 40.1753 44.9014L40.1762 44.9009C40.6929 44.6005 41.2926 44.4746 41.8864 44.5418Z" fill="#20BFFC"/>
<path fill-rule="evenodd" clip-rule="evenodd" d="M29.1129 44.7214C27.6879 42.8676 26.8402 40.5469 26.8402 38.0297C26.8402 31.9614 31.7669 27.0347 37.8354 27.0347C39.9241 27.0347 41.8776 27.6183 43.5417 28.6315C41.5308 26.0154 38.3705 24.3281 34.8193 24.3281C28.751 24.3281 23.8242 29.2549 23.8242 35.3232C23.8242 39.3028 25.9431 42.7914 29.1129 44.7214Z" fill="#0DB0EE"/>
<path d="M34.8176 36.8071C35.6359 36.8071 36.2992 36.1437 36.2992 35.3254C36.2992 34.5071 35.6359 33.8438 34.8176 33.8438C33.9993 33.8438 33.3359 34.5071 33.3359 35.3254C33.3359 36.1437 33.9993 36.8071 34.8176 36.8071Z" fill="#F1FBFF"/>
<path d="M30.0949 36.8071C30.9132 36.8071 31.5766 36.1437 31.5766 35.3254C31.5766 34.5071 30.9132 33.8438 30.0949 33.8438C29.2766 33.8438 28.6133 34.5071 28.6133 35.3254C28.6133 36.1437 29.2766 36.8071 30.0949 36.8071Z" fill="#F1FBFF"/>
<path d="M39.5421 36.8071C40.3604 36.8071 41.0237 36.1437 41.0237 35.3254C41.0237 34.5071 40.3604 33.8438 39.5421 33.8438C38.7238 33.8438 38.0605 34.5071 38.0605 35.3254C38.0605 36.1437 38.7238 36.8071 39.5421 36.8071Z" fill="#F1FBFF"/>
<path d="M23.1438 26.1391C23.962 26.1391 24.6254 25.4757 24.6254 24.6574C24.6254 23.8392 23.962 23.1758 23.1438 23.1758C22.3255 23.1758 21.6621 23.8392 21.6621 24.6574C21.6621 25.4757 22.3255 26.1391 23.1438 26.1391Z" fill="#F1FBFF"/>
<path d="M27.8684 26.1391C28.6866 26.1391 29.35 25.4757 29.35 24.6574C29.35 23.8392 28.6866 23.1758 27.8684 23.1758C27.0501 23.1758 26.3867 23.8392 26.3867 24.6574C26.3867 25.4757 27.0501 26.1391 27.8684 26.1391Z" fill="#F1FBFF"/>
<path d="M18.4211 26.1391C19.2394 26.1391 19.9027 25.4757 19.9027 24.6574C19.9027 23.8392 19.2394 23.1758 18.4211 23.1758C17.6028 23.1758 16.9395 23.8392 16.9395 24.6574C16.9395 25.4757 17.6028 26.1391 18.4211 26.1391Z" fill="#F1FBFF"/>
<path fill-rule="evenodd" clip-rule="evenodd" d="M13.389 29.9152H13.4142C13.3007 29.2763 13.2437 28.6287 13.244 27.9799C13.244 21.9116 18.1707 16.9849 24.2392 16.9849C28.4857 16.9849 32.1734 19.3976 34.005 22.9265C33.1741 17.6793 28.6252 13.6621 23.1456 13.6621C17.0771 13.6621 12.1504 18.5889 12.1504 24.6572C12.1504 26.323 12.5218 27.9028 13.1858 29.3179L13.188 29.3226C13.28 29.5108 13.3475 29.7099 13.389 29.9152Z" fill="#1D5AEA"/>
<mask id="mask1_2024_7603" style="mask-type:luminance" maskUnits="userSpaceOnUse" x="2" y="2" width="19" height="19">
<path d="M20.3418 2.01758H2.3418V20.0176H20.3418V2.01758Z" fill="white"/>
</mask>
<g mask="url(#mask1_2024_7603)">
<path d="M11.3418 2.01758C8.95539 2.01758 6.66461 2.96638 4.97852 4.6536C3.29069 6.34148 2.34227 8.63058 2.3418 11.0176C2.3418 13.4036 3.29102 15.6944 4.97852 17.3816C6.66461 19.0688 8.95539 20.0176 11.3418 20.0176C13.7282 20.0176 16.019 19.0688 17.7051 17.3816C19.3926 15.6944 20.3418 13.4036 20.3418 11.0176C20.3418 8.6316 19.3926 6.34081 17.7051 4.6536C16.019 2.96638 13.7282 2.01758 11.3418 2.01758Z" fill="url(#paint0_linear_2024_7603)"/>
<path d="M6.41593 10.9226C9.03999 9.77961 10.7894 9.026 11.6641 8.66192C14.1644 7.62228 14.6833 7.44172 15.0222 7.4356C15.0967 7.43441 15.2626 7.45283 15.3709 7.54037C15.4609 7.6142 15.4862 7.71404 15.4989 7.78414C15.5101 7.85417 15.5256 8.01378 15.513 8.13838C15.378 9.5615 14.7916 13.015 14.4934 14.609C14.3683 15.2834 14.1194 15.5095 13.8789 15.5316C13.3558 15.5797 12.9592 15.1862 12.453 14.8545C11.6612 14.3352 11.2141 14.012 10.4448 13.5053C9.55608 12.9198 10.1326 12.5979 10.6389 12.072C10.7711 11.9343 13.0745 9.83966 13.1181 9.64967C13.1237 9.62591 13.1294 9.53731 13.0759 9.49063C13.0239 9.4438 12.9466 9.45983 12.8903 9.47248C12.8101 9.49048 11.5459 10.3269 9.09343 11.9817C8.73483 12.2283 8.40999 12.3486 8.11749 12.3422C7.79686 12.3353 7.17811 12.1606 6.71827 12.0112C6.15577 11.828 5.70718 11.7311 5.74655 11.4199C5.76624 11.2579 5.98983 11.0921 6.41593 10.9226Z" fill="white"/>
</g>
</g>
</g>
<defs>
<linearGradient id="paint0_linear_2024_7603" x1="902.342" y1="2.01758" x2="902.342" y2="1802.02" gradientUnits="userSpaceOnUse">
<stop stop-color="#2AABEE"/>
<stop offset="1" stop-color="#229ED9"/>
</linearGradient>
<clipPath id="clip0_2024_7603">
<rect width="60" height="60" fill="white" transform="translate(0.341797 0.0175781)"/>
</clipPath>
</defs>
</svg>
