<svg width="61" height="61" viewBox="0 0 61 61" fill="none" xmlns="http://www.w3.org/2000/svg">
<g clip-path="url(#clip0_2024_7393)">
<mask id="mask0_2024_7393" style="mask-type:luminance" maskUnits="userSpaceOnUse" x="0" y="0" width="61" height="61">
<path d="M50.3418 0.578125H10.3418C4.81895 0.578125 0.341797 5.05528 0.341797 10.5781V50.5781C0.341797 56.101 4.81895 60.5781 10.3418 60.5781H50.3418C55.8646 60.5781 60.3418 56.101 60.3418 50.5781V10.5781C60.3418 5.05528 55.8646 0.578125 50.3418 0.578125Z" fill="white"/>
</mask>
<g mask="url(#mask0_2024_7393)">
<path d="M50.3418 0.578125H10.3418C4.81895 0.578125 0.341797 5.05528 0.341797 10.5781V50.5781C0.341797 56.101 4.81895 60.5781 10.3418 60.5781H50.3418C55.8646 60.5781 60.3418 56.101 60.3418 50.5781V10.5781C60.3418 5.05528 55.8646 0.578125 50.3418 0.578125Z" fill="#EEF2F9"/>
<mask id="mask1_2024_7393" style="mask-type:luminance" maskUnits="userSpaceOnUse" x="9" y="9" width="43" height="43">
<path d="M51.3418 9.57812H9.3418V51.5781H51.3418V9.57812Z" fill="white"/>
</mask>
<g mask="url(#mask1_2024_7393)">
<path d="M20.5287 20.6399C18.5171 16.215 21.2821 12.8769 24.0593 11.7709V11.7779C24.0934 11.3491 24.1494 10.9632 24.2081 10.6386C24.264 10.3397 24.423 10.0698 24.6574 9.87606C24.8918 9.68228 25.1867 9.57685 25.4908 9.57814H33.7219C38.8433 9.57814 42.2042 15.5509 40.3019 20.7799L39.0017 24.356H22.2183L20.5296 20.6407L20.5287 20.6399Z" fill="url(#paint0_linear_2024_7393)"/>
<path d="M42.5909 51.5782H18.0909C17.4488 51.5788 16.8144 51.4375 16.2332 51.1643C15.6521 50.8911 15.1385 50.4928 14.7292 49.998C14.3171 49.5036 14.0194 48.9242 13.8574 48.3012C13.6954 47.6783 13.6731 47.0273 13.7921 46.3947L15.0354 39.7701C15.4651 37.4531 17.1547 35.6217 19.4428 34.9926L25.5092 33.3397C28.673 32.4779 32.0098 32.4779 35.1736 33.3397L41.2382 34.9926H41.2399C43.5281 35.6217 45.2177 37.4531 45.6482 39.7719L46.8898 46.3939C47.0089 47.0265 46.9867 47.6776 46.8248 48.3006C46.663 48.9237 46.3655 49.5033 45.9536 49.998C45.5443 50.4928 45.0307 50.8911 44.4495 51.1643C43.8683 51.4375 43.2331 51.5788 42.5909 51.5782Z" fill="url(#paint1_linear_2024_7393)"/>
<path d="M29.4668 37.5781H31.2168V51.5781H29.4668V37.5781Z" fill="url(#paint2_linear_2024_7393)"/>
<path d="M24.2168 44.5781H21.5918C21.3597 44.5781 21.1372 44.4859 20.9731 44.3218C20.809 44.1577 20.7168 43.9352 20.7168 43.7031C20.7168 43.471 20.809 43.2485 20.9731 43.0844C21.1372 42.9203 21.3597 42.8281 21.5918 42.8281H24.2168C24.4489 42.8281 24.6714 42.9203 24.8355 43.0844C24.9996 43.2485 25.0918 43.471 25.0918 43.7031C25.0918 43.9352 24.9996 44.1577 24.8355 44.3218C24.6714 44.4859 24.4489 44.5781 24.2168 44.5781Z" fill="url(#paint3_linear_2024_7393)"/>
<path d="M28.5918 32.3281H32.0918C32.8961 32.3281 33.6926 32.4865 34.4357 32.7943C35.1789 33.1021 35.8541 33.5533 36.4228 34.1221C36.9916 34.6908 37.4428 35.366 37.7506 36.1092C38.0584 36.8523 38.2168 37.6488 38.2168 38.4531C38.2168 38.9172 38.0324 39.3623 37.7042 39.6905C37.376 40.0187 36.9309 40.2031 36.4668 40.2031H24.2168C23.7527 40.2031 23.3076 40.0187 22.9794 39.6905C22.6512 39.3623 22.4668 38.9172 22.4668 38.4531C22.4668 36.8286 23.1121 35.2707 24.2608 34.1221C25.4094 32.9734 26.9673 32.3281 28.5918 32.3281Z" fill="url(#paint4_linear_2024_7393)"/>
<path d="M25.9668 30.6133V35.8283C25.9668 36.9886 26.4277 38.1014 27.2482 38.9218C28.0687 39.7423 29.1815 40.2033 30.3418 40.2033C31.5021 40.2033 32.6149 39.7423 33.4354 38.9218C34.2559 38.1014 34.7168 36.9886 34.7168 35.8283V30.6133H25.9668Z" fill="url(#paint5_linear_2024_7393)"/>
<path d="M38.2177 30.5781H33.8418C33.6097 30.5781 33.3872 30.4859 33.2231 30.3218C33.059 30.1577 32.9668 29.9352 32.9668 29.7031C32.9668 29.471 33.059 29.2485 33.2231 29.0844C33.3872 28.9203 33.6097 28.8281 33.8418 28.8281H38.2177C38.7007 28.8281 39.0927 28.4352 39.0927 27.9531V25.3281C39.0927 25.096 39.1849 24.8735 39.349 24.7094C39.5131 24.5453 39.7356 24.4531 39.9677 24.4531C40.1997 24.4531 40.4223 24.5453 40.5864 24.7094C40.7505 24.8735 40.8427 25.096 40.8427 25.3281V27.9531C40.8427 29.4004 39.6649 30.5781 38.2177 30.5781Z" fill="url(#paint6_linear_2024_7393)"/>
<path d="M39.0918 27.0781H37.3418C37.1097 27.0781 36.8872 26.9859 36.7231 26.8218C36.559 26.6577 36.4668 26.4352 36.4668 26.2031V20.9531C36.4668 20.721 36.559 20.4985 36.7231 20.3344C36.8872 20.1703 37.1097 20.0781 37.3418 20.0781H39.0918C40.539 20.0781 41.7168 21.2558 41.7168 22.7031V24.4531C41.7168 25.9003 40.539 27.0781 39.0918 27.0781Z" fill="url(#paint7_linear_2024_7393)"/>
<path d="M18.9668 24.4531V22.7031C18.9668 21.2558 20.1445 20.0781 21.5918 20.0781H23.3418C23.5739 20.0781 23.7964 20.1703 23.9605 20.3344C24.1246 20.4985 24.2168 20.721 24.2168 20.9531V26.2031C24.2168 26.4352 24.1246 26.6577 23.9605 26.8218C23.7964 26.9859 23.5739 27.0781 23.3418 27.0781H21.5918C20.1445 27.0781 18.9668 25.9003 18.9668 24.4531Z" fill="url(#paint8_linear_2024_7393)"/>
<path d="M22.4668 27.0781V20.9531C22.4668 20.0248 22.8355 19.1346 23.4919 18.4782C24.1483 17.8218 25.0385 17.4531 25.9668 17.4531H34.7168C35.6451 17.4531 36.5353 17.8218 37.1917 18.4782C37.8481 19.1346 38.2168 20.0248 38.2168 20.9531V27.0781C38.2168 27.9103 38.053 28.7343 37.7345 29.5031C37.4161 30.2719 36.9493 30.9705 36.3609 31.559L34.8235 33.0964C34.2351 33.6848 33.5366 34.1516 32.7677 34.4701C31.9989 34.7885 31.1749 34.9525 30.3427 34.9525C29.5105 34.9525 28.6865 34.7885 27.9176 34.4701C27.1488 34.1516 26.4502 33.6848 25.8618 33.0964L24.3244 31.559C23.736 30.9705 23.2693 30.2719 22.9508 29.5031C22.6324 28.7343 22.4685 27.9103 22.4685 27.0781H22.4668Z" fill="url(#paint9_linear_2024_7393)"/>
<path d="M38.2177 30.5781H33.8418C33.6097 30.5781 33.3872 30.4859 33.2231 30.3218C33.059 30.1577 32.9668 29.9352 32.9668 29.7031C32.9668 29.471 33.059 29.2485 33.2231 29.0844C33.3872 28.9203 33.6097 28.8281 33.8418 28.8281H38.2177V30.5781Z" fill="url(#paint10_linear_2024_7393)"/>
<path d="M32.9668 27.9531H31.2168C30.2503 27.9531 29.4668 28.7366 29.4668 29.7031C29.4668 30.6696 30.2503 31.4531 31.2168 31.4531H32.9668C33.9333 31.4531 34.7168 30.6696 34.7168 29.7031C34.7168 28.7366 33.9333 27.9531 32.9668 27.9531Z" fill="url(#paint11_linear_2024_7393)"/>
</g>
<mask id="mask2_2024_7393" style="mask-type:luminance" maskUnits="userSpaceOnUse" x="2" y="2" width="19" height="19">
<path d="M20.3418 2.57812H2.3418V20.5781H20.3418V2.57812Z" fill="white"/>
</mask>
<g mask="url(#mask2_2024_7393)">
<path d="M11.3418 2.57812C8.95539 2.57812 6.66461 3.52693 4.97852 5.21415C3.29069 6.90203 2.34227 9.19112 2.3418 11.5781C2.3418 13.9641 3.29102 16.2549 4.97852 17.9421C6.66461 19.6293 8.95539 20.5781 11.3418 20.5781C13.7282 20.5781 16.019 19.6293 17.7051 17.9421C19.3926 16.2549 20.3418 13.9641 20.3418 11.5781C20.3418 9.19215 19.3926 6.90136 17.7051 5.21415C16.019 3.52693 13.7282 2.57812 11.3418 2.57812Z" fill="url(#paint12_linear_2024_7393)"/>
<path d="M6.41593 11.4831C9.03999 10.3402 10.7894 9.58655 11.6641 9.22247C14.1644 8.18283 14.6833 8.00227 15.0222 7.99615C15.0967 7.99496 15.2626 8.01338 15.3709 8.10092C15.4609 8.17475 15.4862 8.27459 15.4989 8.34469C15.5101 8.41472 15.5256 8.57433 15.513 8.69893C15.378 10.122 14.7916 13.5755 14.4934 15.1695C14.3683 15.8439 14.1194 16.07 13.8789 16.0921C13.3558 16.1402 12.9592 15.7467 12.453 15.415C11.6612 14.8957 11.2141 14.5725 10.4448 14.0658C9.55608 13.4803 10.1326 13.1584 10.6389 12.6325C10.7711 12.4948 13.0745 10.4002 13.1181 10.2102C13.1237 10.1865 13.1294 10.0979 13.0759 10.0512C13.0239 10.0043 12.9466 10.0204 12.8903 10.033C12.8101 10.051 11.5459 10.8874 9.09343 12.5422C8.73483 12.7888 8.40999 12.9091 8.11749 12.9027C7.79686 12.8958 7.17811 12.7211 6.71827 12.5717C6.15577 12.3885 5.70718 12.2916 5.74655 11.9804C5.76624 11.8184 5.98983 11.6526 6.41593 11.4831Z" fill="white"/>
</g>
</g>
</g>
<defs>
<linearGradient id="paint0_linear_2024_7393" x1="19.5723" y1="12.2049" x2="38.1311" y2="21.836" gradientUnits="userSpaceOnUse">
<stop stop-color="#3E4154"/>
<stop offset="1" stop-color="#1B2129"/>
</linearGradient>
<linearGradient id="paint1_linear_2024_7393" x1="30.3409" y1="33.6827" x2="30.3409" y2="51.8189" gradientUnits="userSpaceOnUse">
<stop stop-color="#4793EB"/>
<stop offset="1" stop-color="#2367EC"/>
</linearGradient>
<linearGradient id="paint2_linear_2024_7393" x1="30.3418" y1="39.8689" x2="30.3418" y2="51.3235" gradientUnits="userSpaceOnUse">
<stop stop-color="#2B50D2"/>
<stop offset="1" stop-color="#182EA5"/>
</linearGradient>
<linearGradient id="paint3_linear_2024_7393" x1="20.7544" y1="42.822" x2="24.9177" y2="44.5282" gradientUnits="userSpaceOnUse">
<stop stop-color="white"/>
<stop offset="1" stop-color="#DADFE0"/>
</linearGradient>
<linearGradient id="paint4_linear_2024_7393" x1="30.3418" y1="33.3484" x2="30.3418" y2="39.9056" gradientUnits="userSpaceOnUse">
<stop stop-color="#6FC6FC"/>
<stop offset="1" stop-color="#50A7F6"/>
</linearGradient>
<linearGradient id="paint5_linear_2024_7393" x1="26.5399" y1="32.7351" x2="34.5654" y2="36.6473" gradientUnits="userSpaceOnUse">
<stop stop-color="#F1D2BD"/>
<stop offset="1" stop-color="#FEB592"/>
</linearGradient>
<linearGradient id="paint6_linear_2024_7393" x1="36.9043" y1="26.4262" x2="36.9043" y2="30.3769" gradientUnits="userSpaceOnUse">
<stop stop-color="#C6CBCC"/>
<stop offset="1" stop-color="#9FA5A6"/>
</linearGradient>
<linearGradient id="paint7_linear_2024_7393" x1="39.0918" y1="20.3065" x2="39.0918" y2="27.1376" gradientUnits="userSpaceOnUse">
<stop stop-color="#4793EB"/>
<stop offset="1" stop-color="#2367EC"/>
</linearGradient>
<linearGradient id="paint8_linear_2024_7393" x1="21.5918" y1="20.3065" x2="21.5918" y2="27.1376" gradientUnits="userSpaceOnUse">
<stop stop-color="#4793EB"/>
<stop offset="1" stop-color="#2367EC"/>
</linearGradient>
<linearGradient id="paint9_linear_2024_7393" x1="30.3418" y1="17.9991" x2="30.3418" y2="35.0388" gradientUnits="userSpaceOnUse">
<stop stop-color="#F1D2BD"/>
<stop offset="0.314" stop-color="#F2CFB9"/>
<stop offset="0.608" stop-color="#F5C7AD"/>
<stop offset="0.894" stop-color="#FBBB9B"/>
<stop offset="1" stop-color="#FEB592"/>
</linearGradient>
<linearGradient id="paint10_linear_2024_7393" x1="35.5918" y1="9.57813" x2="35.5918" y2="30.3768" gradientUnits="userSpaceOnUse">
<stop stop-color="#C6CBCC"/>
<stop offset="1" stop-color="#9FA5A6"/>
</linearGradient>
<linearGradient id="paint11_linear_2024_7393" x1="32.0918" y1="27.8638" x2="32.0918" y2="31.076" gradientUnits="userSpaceOnUse">
<stop stop-color="#4793EB"/>
<stop offset="1" stop-color="#2367EC"/>
</linearGradient>
<linearGradient id="paint12_linear_2024_7393" x1="902.342" y1="2.57812" x2="902.342" y2="1802.58" gradientUnits="userSpaceOnUse">
<stop stop-color="#2AABEE"/>
<stop offset="1" stop-color="#229ED9"/>
</linearGradient>
<clipPath id="clip0_2024_7393">
<rect width="60" height="60" fill="white" transform="translate(0.341797 0.578125)"/>
</clipPath>
</defs>
</svg>
