<svg width="61" height="61" viewBox="0 0 61 61" fill="none" xmlns="http://www.w3.org/2000/svg">
<g clip-path="url(#clip0_2024_7507)">
<mask id="mask0_2024_7507" style="mask-type:luminance" maskUnits="userSpaceOnUse" x="0" y="0" width="61" height="61">
<path d="M50.3418 0.798828H10.3418C4.81895 0.798828 0.341797 5.27598 0.341797 10.7988V50.7988C0.341797 56.3217 4.81895 60.7988 10.3418 60.7988H50.3418C55.8646 60.7988 60.3418 56.3217 60.3418 50.7988V10.7988C60.3418 5.27598 55.8646 0.798828 50.3418 0.798828Z" fill="white"/>
</mask>
<g mask="url(#mask0_2024_7507)">
<path d="M50.3418 0.798828H10.3418C4.81895 0.798828 0.341797 5.27598 0.341797 10.7988V50.7988C0.341797 56.3217 4.81895 60.7988 10.3418 60.7988H50.3418C55.8646 60.7988 60.3418 56.3217 60.3418 50.7988V10.7988C60.3418 5.27598 55.8646 0.798828 50.3418 0.798828Z" fill="#EEF2F9"/>
<mask id="mask1_2024_7507" style="mask-type:luminance" maskUnits="userSpaceOnUse" x="9" y="9" width="43" height="43">
<path d="M51.3418 9.79883H9.3418V51.7988H51.3418V9.79883Z" fill="white"/>
</mask>
<g mask="url(#mask1_2024_7507)">
<path d="M46.3037 27.4852C46.2274 27.3412 46.1875 27.1807 46.1875 27.0178C46.1875 26.8548 46.2274 26.6943 46.3036 26.5503L46.8206 25.5738C47.616 24.0712 47.1838 22.1775 45.8152 21.1689L44.9258 20.5134C44.7946 20.4168 44.689 20.2895 44.6183 20.1427C44.5476 19.9959 44.5139 19.834 44.5202 19.6712L44.5623 18.567C44.627 16.8682 43.4159 15.3496 41.7453 15.0346L40.6595 14.8299C40.4993 14.7998 40.349 14.7309 40.2216 14.6293C40.0942 14.5277 39.9936 14.3965 39.9287 14.247L39.4874 13.234C38.8086 11.6754 37.0587 10.8324 35.4168 11.2736L34.3496 11.5603C34.1923 11.6027 34.027 11.6058 33.8681 11.5696C33.7093 11.5333 33.5617 11.4587 33.4383 11.3523L32.6013 10.631C31.3136 9.52144 29.3711 9.52144 28.0832 10.631L27.2461 11.3523C27.1227 11.4587 26.9752 11.5333 26.8163 11.5696C26.6575 11.6058 26.4922 11.6027 26.3349 11.5603L25.2677 11.2736C23.6257 10.8326 21.8759 11.6754 21.1971 13.234L20.7558 14.2471C20.6908 14.3965 20.5902 14.5277 20.4628 14.6293C20.3354 14.7309 20.1851 14.7998 20.025 14.8299L18.9391 15.0346C17.2685 15.3496 16.0575 16.8682 16.1221 18.567L16.1641 19.6712C16.1704 19.834 16.1367 19.9959 16.0661 20.1427C15.9954 20.2895 15.8898 20.4167 15.7586 20.5134L14.8691 21.169C13.5007 22.1776 13.0685 24.0713 13.8638 25.5739L14.3807 26.5504C14.457 26.6944 14.4969 26.8549 14.4969 27.0178C14.4969 27.1808 14.457 27.3412 14.3807 27.4852L13.8638 28.4618C13.0685 29.9642 13.5007 31.8579 14.8691 32.8666L15.7585 33.5222C15.8898 33.6188 15.9953 33.7461 16.066 33.8929C16.1367 34.0397 16.1704 34.2016 16.1641 34.3645L16.122 35.4686C16.0574 37.1674 17.2685 38.6861 18.939 39.001L19.5087 39.1084L19.5928 41.7387L25.665 44.8241L28.2987 43.5748C28.9027 44.0158 29.6223 44.2368 30.3422 44.2368C31.0511 44.2368 31.7598 44.0229 32.358 43.5954L34.5271 45.0702L40.5992 41.9724L41.1402 39.1151L41.7454 39.0009C43.416 38.686 44.6271 37.1674 44.5624 35.4685L44.5203 34.3644C44.514 34.2016 44.5477 34.0397 44.6184 33.8929C44.6891 33.7461 44.7946 33.6188 44.9258 33.5222L45.8153 32.8666C47.1838 31.858 47.616 29.9643 46.8207 28.4618L46.3037 27.4852Z" fill="url(#paint0_linear_2024_7507)"/>
<path d="M41.4198 27.0171C41.4198 20.9089 36.4504 15.9395 30.3422 15.9395C24.234 15.9395 19.2646 20.9089 19.2646 27.0171C19.2646 33.1253 24.234 38.0947 30.3422 38.0947C36.4504 38.0947 41.4198 33.1253 41.4198 27.0171ZM35.8838 26.3771L34.0059 28.2075L34.4492 30.7921C34.4879 31.0185 34.4626 31.2512 34.3761 31.4639C34.2895 31.6766 34.1452 31.8609 33.9594 31.9959C33.7736 32.1309 33.5538 32.2112 33.3247 32.2278C33.0956 32.2443 32.8665 32.1965 32.6632 32.0897L30.3421 30.8694L28.021 32.0897C27.8177 32.1966 27.5885 32.2445 27.3594 32.228C27.1303 32.2115 26.9104 32.1312 26.7246 31.9961C26.5388 31.8611 26.3944 31.6768 26.3079 31.464C26.2214 31.2512 26.1962 31.0185 26.2351 30.7921L26.6784 28.2075L24.8005 26.3771C24.636 26.2168 24.5197 26.0136 24.4646 25.7907C24.4096 25.5677 24.418 25.3337 24.489 25.1153C24.56 24.8969 24.6907 24.7026 24.8663 24.5546C25.0419 24.4066 25.2554 24.3107 25.4827 24.2777L28.0778 23.9006L29.2383 21.549C29.34 21.3431 29.4972 21.1697 29.6923 21.0485C29.8873 20.9273 30.1124 20.863 30.3421 20.863C30.5717 20.863 30.7968 20.9272 30.9918 21.0484C31.1869 21.1697 31.3442 21.343 31.4458 21.549L32.6064 23.9005L35.2016 24.2776C35.4288 24.3106 35.6423 24.4066 35.8179 24.5547C35.9934 24.7027 36.1241 24.8969 36.1951 25.1153C36.266 25.3338 36.2745 25.5677 36.2195 25.7906C36.1645 26.0136 36.0482 26.2167 35.8838 26.3771ZM27.2461 42.6825C27.1227 42.5761 26.9751 42.5015 26.8163 42.4653C26.6574 42.429 26.4921 42.4322 26.3348 42.4745L25.2676 42.7611C23.6257 43.2023 21.8758 42.3594 21.197 40.8008L20.7558 39.7878C20.6908 39.6384 20.5902 39.5071 20.4628 39.4055C20.3354 39.3039 20.185 39.235 20.0249 39.2049L19.5087 39.1076L15.5856 46.1967C15.4786 46.3899 15.4256 46.6084 15.4322 46.8292C15.4387 47.05 15.5046 47.265 15.6229 47.4515C15.7411 47.6381 15.9074 47.7894 16.1042 47.8896C16.3011 47.9898 16.5213 48.0352 16.7417 48.0209L20.3444 47.7886L21.9505 51.1039C22.0513 51.312 22.2087 51.4875 22.4046 51.6102C22.6006 51.733 22.8271 51.7982 23.0584 51.7982C23.2789 51.7981 23.4955 51.7388 23.6853 51.6264C23.8751 51.5141 24.0312 51.3527 24.1373 51.1593L28.2987 43.5741C28.2246 43.5202 28.1527 43.4634 28.0832 43.4038L27.2461 42.6825ZM45.0596 46.1967L41.1402 39.1143L40.6595 39.2049C40.4993 39.235 40.349 39.3039 40.2216 39.4055C40.0943 39.5071 39.9937 39.6383 39.9287 39.7877L39.4874 40.8008C38.93 42.0805 37.6501 42.8777 36.3013 42.8778C36.0074 42.8778 35.7105 42.84 35.4168 42.7611L34.3496 42.4745C34.1923 42.4322 34.027 42.429 33.8682 42.4653C33.7093 42.5015 33.5618 42.5761 33.4384 42.6825L32.6013 43.4038C32.5231 43.4711 32.442 43.5348 32.3581 43.5946L36.5079 51.1593C36.6165 51.3573 36.7776 51.5217 36.9734 51.6343C37.1693 51.7469 37.3923 51.8034 37.6181 51.7977C37.844 51.792 38.0639 51.7243 38.2538 51.6019C38.4436 51.4795 38.5962 51.3072 38.6947 51.104L40.3009 47.7887L43.9035 48.021C44.1239 48.0352 44.3441 47.9898 44.5409 47.8896C44.7377 47.7894 44.904 47.6382 45.0223 47.4516C45.1405 47.265 45.2064 47.0501 45.2129 46.8293C45.2195 46.6085 45.1665 46.39 45.0596 46.1967Z" fill="url(#paint1_linear_2024_7507)"/>
</g>
<mask id="mask2_2024_7507" style="mask-type:luminance" maskUnits="userSpaceOnUse" x="2" y="2" width="19" height="19">
<path d="M20.3418 2.79883H2.3418V20.7988H20.3418V2.79883Z" fill="white"/>
</mask>
<g mask="url(#mask2_2024_7507)">
<path d="M11.3418 2.79883C8.95539 2.79883 6.66461 3.74763 4.97852 5.43485C3.29069 7.12273 2.34227 9.41183 2.3418 11.7988C2.3418 14.1848 3.29102 16.4756 4.97852 18.1628C6.66461 19.85 8.95539 20.7988 11.3418 20.7988C13.7282 20.7988 16.019 19.85 17.7051 18.1628C19.3926 16.4756 20.3418 14.1848 20.3418 11.7988C20.3418 9.41285 19.3926 7.12206 17.7051 5.43485C16.019 3.74763 13.7282 2.79883 11.3418 2.79883Z" fill="url(#paint2_linear_2024_7507)"/>
<path d="M6.41593 11.7038C9.03999 10.5609 10.7894 9.80725 11.6641 9.44317C14.1644 8.40353 14.6833 8.22297 15.0222 8.21685C15.0967 8.21566 15.2626 8.23408 15.3709 8.32162C15.4609 8.39545 15.4862 8.49529 15.4989 8.56539C15.5101 8.63542 15.5256 8.79503 15.513 8.91963C15.378 10.3428 14.7916 13.7962 14.4934 15.3902C14.3683 16.0646 14.1194 16.2907 13.8789 16.3128C13.3558 16.3609 12.9592 15.9674 12.453 15.6357C11.6612 15.1164 11.2141 14.7932 10.4448 14.2865C9.55608 13.701 10.1326 13.3791 10.6389 12.8532C10.7711 12.7155 13.0745 10.6209 13.1181 10.4309C13.1237 10.4072 13.1294 10.3186 13.0759 10.2719C13.0239 10.2251 12.9466 10.2411 12.8903 10.2537C12.8101 10.2717 11.5459 11.1081 9.09343 12.7629C8.73483 13.0095 8.40999 13.1298 8.11749 13.1234C7.79686 13.1165 7.17811 12.9418 6.71827 12.7924C6.15577 12.6092 5.70718 12.5123 5.74655 12.2011C5.76624 12.0391 5.98983 11.8733 6.41593 11.7038Z" fill="white"/>
</g>
</g>
</g>
<defs>
<linearGradient id="paint0_linear_2024_7507" x1="30.342" y1="45.0701" x2="30.342" y2="9.79879" gradientUnits="userSpaceOnUse">
<stop stop-color="#FD5900"/>
<stop offset="1" stop-color="#FFDE00"/>
</linearGradient>
<linearGradient id="paint1_linear_2024_7507" x1="30.3226" y1="51.7982" x2="30.3226" y2="15.9395" gradientUnits="userSpaceOnUse">
<stop stop-color="#FFE59A"/>
<stop offset="1" stop-color="#FFFFD5"/>
</linearGradient>
<linearGradient id="paint2_linear_2024_7507" x1="902.342" y1="2.79883" x2="902.342" y2="1802.8" gradientUnits="userSpaceOnUse">
<stop stop-color="#2AABEE"/>
<stop offset="1" stop-color="#229ED9"/>
</linearGradient>
<clipPath id="clip0_2024_7507">
<rect width="60" height="60" fill="white" transform="translate(0.341797 0.798828)"/>
</clipPath>
</defs>
</svg>
