<svg width="61" height="61" viewBox="0 0 61 61" fill="none" xmlns="http://www.w3.org/2000/svg">
<g clip-path="url(#clip0_2024_7446)">
<mask id="mask0_2024_7446" style="mask-type:luminance" maskUnits="userSpaceOnUse" x="0" y="0" width="61" height="61">
<path d="M50.3418 0.1875H10.3418C4.81895 0.1875 0.341797 4.66465 0.341797 10.1875V50.1875C0.341797 55.7103 4.81895 60.1875 10.3418 60.1875H50.3418C55.8646 60.1875 60.3418 55.7103 60.3418 50.1875V10.1875C60.3418 4.66465 55.8646 0.1875 50.3418 0.1875Z" fill="white"/>
</mask>
<g mask="url(#mask0_2024_7446)">
<path d="M50.3418 0.1875H10.3418C4.81895 0.1875 0.341797 4.66465 0.341797 10.1875V50.1875C0.341797 55.7103 4.81895 60.1875 10.3418 60.1875H50.3418C55.8646 60.1875 60.3418 55.7103 60.3418 50.1875V10.1875C60.3418 4.66465 55.8646 0.1875 50.3418 0.1875Z" fill="#EEF2F9"/>
<path d="M46.3589 28.5567C46.2028 23.8919 42.1477 20.5833 38.0309 21.5348C35.7383 22.0646 33.1215 22.3652 30.3416 22.3652C27.5618 22.3652 24.945 22.0646 22.6523 21.5348C18.5356 20.5833 14.4805 23.8919 14.3244 28.5567C14.317 28.7766 14.3164 28.9966 14.3225 29.2166C14.4662 34.427 18.4923 38.478 23.1881 38.478H37.4951C42.1909 38.478 46.217 34.4269 46.3608 29.2166C46.3669 28.9949 46.3661 28.7748 46.3589 28.5567Z" fill="url(#paint0_linear_2024_7446)"/>
<path d="M46.3596 28.5569C46.2794 26.1584 45.1682 24.1186 43.548 22.832C43.6221 23.4485 43.6075 24.0796 43.4974 24.7064C43.0004 27.5393 42.0537 30.2745 40.6932 32.8086L37.6523 38.4761C42.2807 38.3874 46.2194 34.3693 46.3616 29.2168C46.3676 28.9968 46.3669 28.7768 46.3596 28.5569Z" fill="url(#paint1_linear_2024_7446)"/>
<path d="M30.0391 22.3626V38.4775H37.4946C37.661 38.4775 37.8265 38.4718 37.9912 38.4617V21.543C35.7079 22.0672 33.1052 22.3647 30.3411 22.3647C30.24 22.3647 30.1397 22.3635 30.0391 22.3626Z" fill="url(#paint2_linear_2024_7446)"/>
<path d="M34.0471 15.6209C34.011 14.542 33.0731 13.7768 32.121 13.9969C31.5907 14.1194 30.9855 14.1889 30.3426 14.1889C29.6997 14.1889 29.0945 14.1194 28.5642 13.9969C27.612 13.7768 26.6742 14.542 26.6381 15.6209C26.6364 15.6717 26.6363 15.7226 26.6377 15.7735C26.671 16.9785 27.6021 17.9155 28.6881 17.9155H31.9971C33.0831 17.9155 34.0143 16.9785 34.0475 15.7735C34.049 15.7222 34.0488 15.6713 34.0471 15.6209Z" fill="url(#paint3_linear_2024_7446)"/>
<path d="M35.4302 18.2182C35.3806 16.7363 34.0925 15.6853 32.7847 15.9875C32.0564 16.1558 31.2251 16.2513 30.342 16.2513C29.459 16.2513 28.6277 16.1558 27.8994 15.9875C26.5916 15.6853 25.3034 16.7363 25.2539 18.2182C25.2515 18.2881 25.2513 18.358 25.2533 18.4279C25.2989 20.0831 26.5779 21.37 28.0697 21.37H32.6146C34.1063 21.37 35.3853 20.0831 35.431 18.4279C35.4328 18.3574 35.4326 18.2875 35.4302 18.2182Z" fill="url(#paint4_linear_2024_7446)"/>
<path d="M14.3244 28.557C14.317 28.7769 14.3164 28.9969 14.3225 29.2169C14.4662 34.4273 18.4923 38.4783 23.1881 38.4783H37.4951C42.1909 38.4783 46.217 34.4272 46.3608 29.2169C46.3669 28.9952 46.3662 28.7751 46.3589 28.557C46.341 28.0144 46.2683 27.4751 46.1417 26.9473H14.5416C14.415 27.4751 14.3422 28.0144 14.3244 28.557Z" fill="url(#paint5_linear_2024_7446)"/>
<path d="M27.8377 38.478C30.6099 37.3296 31.1679 31.7245 29.0667 25.8273C28.6058 24.5338 28.0547 23.3325 27.4447 22.2536C25.7414 22.1217 24.1289 21.8761 22.6516 21.5347C20.7453 21.0941 18.8525 21.5675 17.3537 22.6654C17.3433 24.7119 17.7572 27.1042 18.6275 29.5467C20.274 34.1677 23.0721 37.6166 25.5886 38.4779L27.8377 38.478Z" fill="url(#paint6_linear_2024_7446)"/>
<path d="M12.6566 21.5648C12.3906 21.9922 12.1073 22.6955 12.2704 23.622C12.6747 25.9277 13.4453 28.1539 14.5532 30.216L17.6011 35.8975C17.9775 36.5984 17.7139 37.4721 17.0123 37.8485C16.8034 37.9616 16.5696 38.0208 16.332 38.0206C15.8182 38.0206 15.3208 37.7447 15.0613 37.2605L12.0126 31.5789C10.7603 29.2464 9.88903 26.7287 9.4317 24.1211C9.18134 22.698 9.45805 21.2486 10.2099 20.0413C11.059 18.6784 12.4598 17.7321 14.0525 17.4455C15.6782 17.1532 17.3598 17.5649 18.6659 18.5738L20.2166 19.7728L18.1619 21.8275L16.9036 20.8549C16.575 20.6015 16.197 20.4196 15.7939 20.321C15.3908 20.2225 14.9716 20.2094 14.5631 20.2826C13.7585 20.4275 13.0815 20.8829 12.6566 21.5648Z" fill="url(#paint7_linear_2024_7446)"/>
<path d="M23.055 38.02C22.5411 38.02 22.0438 37.7445 21.7837 37.26L18.7355 31.5789C17.4831 29.2464 16.6117 26.7287 16.1543 24.1211C15.9041 22.6976 16.1806 21.2485 16.9329 20.0407C17.7815 18.6781 19.182 17.7321 20.7753 17.4456C22.4008 17.1533 24.0822 17.5645 25.3886 18.574L28.757 21.1767C29.3868 21.6633 29.5029 22.5685 29.0162 23.1983C28.5297 23.8281 27.6245 23.9444 26.9946 23.4575L23.6262 20.8547C23.2976 20.6012 22.9196 20.4194 22.5164 20.3208C22.1133 20.2222 21.694 20.2091 21.2855 20.2824C20.4811 20.4271 19.8043 20.8824 19.3795 21.5644C19.1133 21.9918 18.8302 22.6956 18.9931 23.6221C19.3976 25.9277 20.1681 28.1537 21.2753 30.216L24.3235 35.8971C24.6998 36.5985 24.4363 37.4721 23.735 37.8484C23.526 37.9611 23.2924 38.02 23.055 38.02Z" fill="url(#paint8_linear_2024_7446)"/>
<path d="M48.0268 21.5648C48.2928 21.9922 48.5761 22.6955 48.413 23.622C48.0088 25.9277 47.2381 28.1539 46.1302 30.216L43.0823 35.8975C42.706 36.5984 42.9695 37.4721 43.6712 37.8485C43.8877 37.9654 44.1208 38.0206 44.3514 38.0206C44.8653 38.0206 45.3627 37.7447 45.6221 37.2605L48.6708 31.5789C49.9231 29.2464 50.7944 26.7287 51.2517 24.1211C51.5021 22.698 51.2254 21.2486 50.4735 20.0413C49.6244 18.6784 48.2236 17.7321 46.6309 17.4455C45.0053 17.1532 43.3236 17.5649 42.0175 18.5738L40.4668 19.7728L42.5215 21.8275L43.7799 20.8549C44.1084 20.6015 44.4864 20.4196 44.8895 20.321C45.2926 20.2225 45.7119 20.2094 46.1203 20.2826C46.9249 20.4275 47.6019 20.8829 48.0268 21.5648Z" fill="url(#paint9_linear_2024_7446)"/>
<path d="M37.6273 38.02C38.1412 38.02 38.6385 37.7445 38.8986 37.26L41.9468 31.5789C43.1991 29.2464 44.0705 26.7287 44.528 24.1211C44.7782 22.6976 44.5017 21.2485 43.7494 20.0407C42.9008 18.6781 41.5003 17.7321 39.907 17.4456C38.2814 17.1533 36.6001 17.5645 35.2937 18.574L31.9253 21.1767C31.2955 21.6633 31.1794 22.5685 31.6661 23.1983C32.1526 23.8281 33.0578 23.9444 33.6877 23.4575L37.0561 20.8547C37.3847 20.6012 37.7627 20.4194 38.1658 20.3208C38.569 20.2222 38.9883 20.2091 39.3967 20.2824C40.2012 20.4271 40.878 20.8824 41.3028 21.5644C41.569 21.9918 41.8521 22.6956 41.6892 23.6221C41.2847 25.9277 40.5142 28.1537 39.4069 30.216L36.3587 35.8971C35.9825 36.5985 36.246 37.4721 36.9473 37.8484C37.1563 37.9611 37.3899 38.02 37.6273 38.02Z" fill="url(#paint10_linear_2024_7446)"/>
<path d="M32.9536 38.738H27.7285V20.6555C27.7285 19.2126 28.8982 18.043 30.3411 18.043C31.784 18.043 32.9536 19.2126 32.9536 20.6555V38.738Z" fill="url(#paint11_linear_2024_7446)"/>
<path d="M18.7372 31.5783L21.7854 37.2594C22.0454 37.744 22.5427 38.0195 23.0567 38.0195C23.2866 38.0195 23.5199 37.9643 23.7367 37.8479C24.4381 37.4716 24.7017 36.598 24.3253 35.8966L21.2771 30.2155C21.2251 30.1188 21.1747 30.0213 21.1243 29.9238H17.9277C18.1771 30.4851 18.4471 31.037 18.7372 31.5783Z" fill="url(#paint12_linear_2024_7446)"/>
<path d="M36.9475 37.8479C37.1566 37.9605 37.3902 38.0194 37.6276 38.0195C38.1415 38.0195 38.6388 37.7439 38.8989 37.2594L41.9471 31.5783C42.2372 31.037 42.5073 30.4851 42.7566 29.9238H39.56C39.5098 30.0214 39.4589 30.1187 39.4073 30.2155L36.3591 35.8966C35.9827 36.598 36.2462 37.4716 36.9475 37.8479Z" fill="url(#paint13_linear_2024_7446)"/>
<path d="M27.7285 26.6348H32.9536V38.738H27.7285V26.6348Z" fill="url(#paint14_linear_2024_7446)"/>
<path d="M12.0125 31.5782L15.0612 37.2597C15.3206 37.744 15.818 38.0199 16.3319 38.0199C16.5625 38.0199 16.7956 37.9647 17.0121 37.8477C17.7138 37.4714 17.9773 36.5976 17.601 35.8968L14.5531 30.2153C14.5014 30.1185 14.4505 30.0214 14.4003 29.9238H11.2031C11.4525 30.485 11.7225 31.0369 12.0125 31.5782Z" fill="url(#paint15_linear_2024_7446)"/>
<path d="M46.2823 29.9238C46.2319 30.0212 46.1815 30.1186 46.1296 30.2153L43.0817 35.8968C42.7053 36.5976 42.9689 37.4714 43.6705 37.8477C43.8871 37.9647 44.1202 38.0199 44.3508 38.0199C44.8646 38.0199 45.3621 37.744 45.6215 37.2597L48.6702 31.5782C48.9603 31.0369 49.2302 30.4851 49.4795 29.9238H46.2823Z" fill="url(#paint16_linear_2024_7446)"/>
<path d="M13.2949 40.8542V41.0709C13.2949 41.8592 13.8908 42.535 14.7073 42.668C25.0352 44.35 35.5973 44.4261 45.9517 42.8927C46.7796 42.7701 47.3891 42.0892 47.3891 41.2918V41.0789C47.3891 40.0899 46.4659 39.3308 45.4381 39.4772C35.4366 40.902 25.249 40.8275 15.2725 39.2564C14.2365 39.0933 13.2949 39.8549 13.2949 40.8542Z" fill="url(#paint17_linear_2024_7446)"/>
<path d="M13.2949 36.6842V38.2243C13.2949 39.0125 13.8908 39.6883 14.7073 39.8213C25.0352 41.5034 35.5973 41.5795 45.9517 40.0461C46.7796 39.9234 47.3891 39.2426 47.3891 38.4451V36.909C47.3891 35.92 46.4659 35.1609 45.4381 35.3073C35.4366 36.7321 25.249 36.6577 15.2725 35.0866C14.2365 34.9234 13.2949 35.6849 13.2949 36.6842Z" fill="url(#paint18_linear_2024_7446)"/>
<path d="M30.3418 36.32V43.9855C33.3889 44.0064 36.4354 43.8907 39.4722 43.6385V35.9766C36.4354 36.2276 33.3889 36.3421 30.3418 36.32Z" fill="url(#paint19_linear_2024_7446)"/>
<path d="M30.3409 46.4161C32.5906 46.4161 34.4143 43.2007 34.4143 39.2344C34.4143 35.2681 32.5906 32.0527 30.3409 32.0527C28.0913 32.0527 26.2676 35.2681 26.2676 39.2344C26.2676 43.2007 28.0913 46.4161 30.3409 46.4161Z" fill="url(#paint20_linear_2024_7446)"/>
<path d="M30.3408 45.34C32.01 45.34 33.3632 42.6069 33.3632 39.2355C33.3632 35.864 32.01 33.1309 30.3408 33.1309C28.6716 33.1309 27.3184 35.864 27.3184 39.2355C27.3184 42.6069 28.6716 45.34 30.3408 45.34Z" fill="url(#paint21_linear_2024_7446)"/>
<path d="M34.3162 37.6604L31.5367 34.8809L29.252 43.7039L31.6103 46.0622C33.2387 45.122 34.4149 42.4215 34.4149 39.2363C34.4151 38.7094 34.3822 38.1831 34.3162 37.6604Z" fill="url(#paint22_linear_2024_7446)"/>
<path d="M30.3421 44.2141C31.7036 44.2141 32.8073 41.9849 32.8073 39.235C32.8073 36.4851 31.7036 34.2559 30.3421 34.2559C28.9806 34.2559 27.877 36.4851 27.877 39.235C27.877 41.9849 28.9806 44.2141 30.3421 44.2141Z" fill="url(#paint23_linear_2024_7446)"/>
<mask id="mask1_2024_7446" style="mask-type:luminance" maskUnits="userSpaceOnUse" x="2" y="2" width="19" height="19">
<path d="M20.3418 2.1875H2.3418V20.1875H20.3418V2.1875Z" fill="white"/>
</mask>
<g mask="url(#mask1_2024_7446)">
<path d="M11.3418 2.1875C8.95539 2.1875 6.66461 3.1363 4.97852 4.82352C3.29069 6.5114 2.34227 8.8005 2.3418 11.1875C2.3418 13.5735 3.29102 15.8643 4.97852 17.5515C6.66461 19.2387 8.95539 20.1875 11.3418 20.1875C13.7282 20.1875 16.019 19.2387 17.7051 17.5515C19.3926 15.8643 20.3418 13.5735 20.3418 11.1875C20.3418 8.80152 19.3926 6.51073 17.7051 4.82352C16.019 3.1363 13.7282 2.1875 11.3418 2.1875Z" fill="url(#paint24_linear_2024_7446)"/>
<path d="M6.41593 11.0925C9.03999 9.94953 10.7894 9.19592 11.6641 8.83184C14.1644 7.7922 14.6833 7.61164 15.0222 7.60552C15.0967 7.60433 15.2626 7.62275 15.3709 7.71029C15.4609 7.78412 15.4862 7.88396 15.4989 7.95406C15.5101 8.02409 15.5256 8.1837 15.513 8.3083C15.378 9.73142 14.7916 13.1849 14.4934 14.7789C14.3683 15.4533 14.1194 15.6794 13.8789 15.7015C13.3558 15.7496 12.9592 15.3561 12.453 15.0244C11.6612 14.5051 11.2141 14.1819 10.4448 13.6752C9.55608 13.0897 10.1326 12.7678 10.6389 12.2419C10.7711 12.1042 13.0745 10.0096 13.1181 9.81959C13.1237 9.79583 13.1294 9.70723 13.0759 9.66055C13.0239 9.61372 12.9466 9.62975 12.8903 9.6424C12.8101 9.6604 11.5459 10.4968 9.09343 12.1516C8.73483 12.3982 8.40999 12.5185 8.11749 12.5121C7.79686 12.5052 7.17811 12.3305 6.71827 12.1811C6.15577 11.9979 5.70718 11.901 5.74655 11.5898C5.76624 11.4278 5.98983 11.262 6.41593 11.0925Z" fill="white"/>
</g>
</g>
</g>
<defs>
<linearGradient id="paint0_linear_2024_7446" x1="30.3416" y1="23.9246" x2="30.3416" y2="36.7454" gradientUnits="userSpaceOnUse">
<stop stop-color="#FD3581"/>
<stop offset="1" stop-color="#972437"/>
</linearGradient>
<linearGradient id="paint1_linear_2024_7446" x1="45.5549" y1="31.8153" x2="42.0411" y2="30.9918" gradientUnits="userSpaceOnUse">
<stop stop-color="#972437" stop-opacity="0"/>
<stop offset="1" stop-color="#42210B"/>
</linearGradient>
<linearGradient id="paint2_linear_2024_7446" x1="36.0783" y1="30.0103" x2="32.4481" y2="30.0103" gradientUnits="userSpaceOnUse">
<stop stop-color="#972437" stop-opacity="0"/>
<stop offset="1" stop-color="#42210B"/>
</linearGradient>
<linearGradient id="paint3_linear_2024_7446" x1="30.3426" y1="14.3896" x2="30.3426" y2="16.8681" gradientUnits="userSpaceOnUse">
<stop stop-color="#FDB97E"/>
<stop offset="1" stop-color="#FE7701"/>
</linearGradient>
<linearGradient id="paint4_linear_2024_7446" x1="30.342" y1="16.5269" x2="30.342" y2="19.9313" gradientUnits="userSpaceOnUse">
<stop stop-color="#FDB97E"/>
<stop offset="1" stop-color="#FE7701"/>
</linearGradient>
<linearGradient id="paint5_linear_2024_7446" x1="30.3416" y1="31.4069" x2="30.3416" y2="37.9412" gradientUnits="userSpaceOnUse">
<stop stop-color="#972437" stop-opacity="0"/>
<stop offset="1" stop-color="#42210B"/>
</linearGradient>
<linearGradient id="paint6_linear_2024_7446" x1="24.2405" y1="29.8672" x2="20.5072" y2="31.0202" gradientUnits="userSpaceOnUse">
<stop stop-color="#972437" stop-opacity="0"/>
<stop offset="1" stop-color="#42210B"/>
</linearGradient>
<linearGradient id="paint7_linear_2024_7446" x1="8.58799" y1="22.8164" x2="15.6703" y2="27.2635" gradientUnits="userSpaceOnUse">
<stop stop-color="#FEE45A"/>
<stop offset="1" stop-color="#FEA613"/>
</linearGradient>
<linearGradient id="paint8_linear_2024_7446" x1="16.3724" y1="21.5323" x2="23.3724" y2="27.6264" gradientUnits="userSpaceOnUse">
<stop stop-color="#FEE45A"/>
<stop offset="1" stop-color="#FEA613"/>
</linearGradient>
<linearGradient id="paint9_linear_2024_7446" x1="52.0955" y1="22.8164" x2="45.0132" y2="27.2635" gradientUnits="userSpaceOnUse">
<stop stop-color="#FEE45A"/>
<stop offset="1" stop-color="#FEA613"/>
</linearGradient>
<linearGradient id="paint10_linear_2024_7446" x1="44.31" y1="21.5323" x2="37.31" y2="27.6264" gradientUnits="userSpaceOnUse">
<stop stop-color="#FEE45A"/>
<stop offset="1" stop-color="#FEA613"/>
</linearGradient>
<linearGradient id="paint11_linear_2024_7446" x1="28.53" y1="28.3905" x2="32.1206" y2="28.3905" gradientUnits="userSpaceOnUse">
<stop stop-color="#FEE45A"/>
<stop offset="1" stop-color="#FEA613"/>
</linearGradient>
<linearGradient id="paint12_linear_2024_7446" x1="21.2122" y1="32.5038" x2="21.2122" y2="36.292" gradientUnits="userSpaceOnUse">
<stop stop-color="#FEA613" stop-opacity="0"/>
<stop offset="1" stop-color="#E94444"/>
</linearGradient>
<linearGradient id="paint13_linear_2024_7446" x1="39.472" y1="32.5038" x2="39.472" y2="36.292" gradientUnits="userSpaceOnUse">
<stop stop-color="#FEA613" stop-opacity="0"/>
<stop offset="1" stop-color="#E94444"/>
</linearGradient>
<linearGradient id="paint14_linear_2024_7446" x1="30.3411" y1="28.6335" x2="30.3411" y2="33.5035" gradientUnits="userSpaceOnUse">
<stop stop-color="#FEA613" stop-opacity="0"/>
<stop offset="1" stop-color="#E94444"/>
</linearGradient>
<linearGradient id="paint15_linear_2024_7446" x1="14.4879" y1="32.5039" x2="14.4879" y2="36.2921" gradientUnits="userSpaceOnUse">
<stop stop-color="#FEA613" stop-opacity="0"/>
<stop offset="1" stop-color="#E94444"/>
</linearGradient>
<linearGradient id="paint16_linear_2024_7446" x1="46.1948" y1="32.5038" x2="46.1948" y2="36.292" gradientUnits="userSpaceOnUse">
<stop stop-color="#FEA613" stop-opacity="0"/>
<stop offset="1" stop-color="#E94444"/>
</linearGradient>
<linearGradient id="paint17_linear_2024_7446" x1="30.3418" y1="40.3554" x2="30.3426" y2="44.3582" gradientUnits="userSpaceOnUse">
<stop stop-color="#FEE45A"/>
<stop offset="1" stop-color="#FEA613"/>
</linearGradient>
<linearGradient id="paint18_linear_2024_7446" x1="30.3417" y1="36.498" x2="30.3428" y2="41.6142" gradientUnits="userSpaceOnUse">
<stop stop-color="#FEE45A"/>
<stop offset="1" stop-color="#FEA613"/>
</linearGradient>
<linearGradient id="paint19_linear_2024_7446" x1="37.4653" y1="39.9822" x2="33.5945" y2="39.9822" gradientUnits="userSpaceOnUse">
<stop stop-color="#FEA613" stop-opacity="0"/>
<stop offset="1" stop-color="#E94444"/>
</linearGradient>
<linearGradient id="paint20_linear_2024_7446" x1="27.0536" y1="35.9471" x2="32.9088" y2="41.8022" gradientUnits="userSpaceOnUse">
<stop stop-color="#FEE45A"/>
<stop offset="1" stop-color="#FEA613"/>
</linearGradient>
<linearGradient id="paint21_linear_2024_7446" x1="34.3022" y1="39.2355" x2="26.149" y2="39.2355" gradientUnits="userSpaceOnUse">
<stop stop-color="#FEE45A"/>
<stop offset="1" stop-color="#FEA613"/>
</linearGradient>
<linearGradient id="paint22_linear_2024_7446" x1="35.2361" y1="41.3784" x2="30.9125" y2="40.3079" gradientUnits="userSpaceOnUse">
<stop stop-color="#FEA613" stop-opacity="0"/>
<stop offset="1" stop-color="#E94444"/>
</linearGradient>
<linearGradient id="paint23_linear_2024_7446" x1="28.3692" y1="38.2331" x2="31.8829" y2="40.0174" gradientUnits="userSpaceOnUse">
<stop stop-color="#FD3581"/>
<stop offset="1" stop-color="#972437"/>
</linearGradient>
<linearGradient id="paint24_linear_2024_7446" x1="902.342" y1="2.1875" x2="902.342" y2="1802.19" gradientUnits="userSpaceOnUse">
<stop stop-color="#2AABEE"/>
<stop offset="1" stop-color="#229ED9"/>
</linearGradient>
<clipPath id="clip0_2024_7446">
<rect width="60" height="60" fill="white" transform="translate(0.341797 0.1875)"/>
</clipPath>
</defs>
</svg>
