<svg width="61" height="61" viewBox="0 0 61 61" fill="none" xmlns="http://www.w3.org/2000/svg">
<g clip-path="url(#clip0_2024_7550)">
<mask id="mask0_2024_7550" style="mask-type:luminance" maskUnits="userSpaceOnUse" x="0" y="0" width="61" height="61">
<path d="M50.3418 0.408203H10.3418C4.81895 0.408203 0.341797 4.88536 0.341797 10.4082V50.4082C0.341797 55.931 4.81895 60.4082 10.3418 60.4082H50.3418C55.8646 60.4082 60.3418 55.931 60.3418 50.4082V10.4082C60.3418 4.88536 55.8646 0.408203 50.3418 0.408203Z" fill="white"/>
</mask>
<g mask="url(#mask0_2024_7550)">
<path d="M50.3418 0.408203H10.3418C4.81895 0.408203 0.341797 4.88536 0.341797 10.4082V50.4082C0.341797 55.931 4.81895 60.4082 10.3418 60.4082H50.3418C55.8646 60.4082 60.3418 55.931 60.3418 50.4082V10.4082C60.3418 4.88536 55.8646 0.408203 50.3418 0.408203Z" fill="#EEF2F9"/>
<mask id="mask1_2024_7550" style="mask-type:luminance" maskUnits="userSpaceOnUse" x="9" y="9" width="43" height="43">
<path d="M51.3418 9.4082H9.3418V51.4082H51.3418V9.4082Z" fill="white"/>
</mask>
<g mask="url(#mask1_2024_7550)">
<path d="M36.4964 26.8555H26.4629L33.9611 49.4172L36.1795 48.1363C36.2759 48.0807 36.3559 48.0007 36.4115 47.9043C36.4671 47.808 36.4964 47.6987 36.4964 47.5874V26.8555Z" fill="#FF8B47"/>
<path d="M24.5625 26.8555L30.3426 51.4088C30.4539 51.4089 30.5633 51.3796 30.6597 51.3239L33.9621 49.4172V26.8555H24.5625Z" fill="#F9B348"/>
<path d="M24.1875 26.8555V47.5874C24.1875 47.6987 24.2168 47.808 24.2724 47.9043C24.328 48.0007 24.408 48.0807 24.5044 48.1363L30.0258 51.324C30.122 51.3795 30.2312 51.4088 30.3424 51.4089V26.8556L24.1875 26.8555Z" fill="#F3DA49"/>
<path d="M30.026 23.1181L24.5044 26.3058C24.0819 26.5497 24.0819 27.1596 24.5044 27.4034L30.026 30.591C30.1224 30.6466 30.2317 30.6759 30.3429 30.6759C30.4541 30.6759 30.5634 30.6466 30.6598 30.591L36.1807 27.4034C36.6032 27.1595 36.6032 26.5497 36.1807 26.3057L30.6598 23.118C30.5634 23.0624 30.4541 23.0332 30.3429 23.0332C30.2317 23.0332 30.1224 23.0625 30.026 23.1181Z" fill="#F9EDA4"/>
<path d="M21.6527 40.4824H11.6191L19.1173 49.4158L21.3358 48.1349C21.4321 48.0793 21.5121 47.9992 21.5677 47.9029C21.6234 47.8066 21.6526 47.6973 21.6527 47.586V40.4824Z" fill="#5515A6"/>
<path d="M9.7168 40.4824L15.4969 51.4074C15.6082 51.4075 15.7176 51.3782 15.814 51.3225L19.1164 49.4158V40.4824H9.7168Z" fill="#793BCC"/>
<path d="M9.3418 40.4824V47.586C9.34179 47.6973 9.37107 47.8066 9.42669 47.9029C9.48232 47.9993 9.56234 48.0793 9.6587 48.1349L15.1801 51.3226C15.2763 51.3781 15.3855 51.4074 15.4967 51.4075V40.4825L9.3418 40.4824Z" fill="#9255E3"/>
<path d="M15.1803 36.7451L9.65869 39.9328C9.23616 40.1766 9.23616 40.7865 9.65869 41.0304L15.1803 44.218C15.2767 44.2736 15.386 44.3029 15.4972 44.3029C15.6084 44.3029 15.7177 44.2736 15.8141 44.218L21.335 41.0304C21.7575 40.7865 21.7575 40.1767 21.335 39.9328L15.8141 36.7451C15.7177 36.6895 15.6084 36.6602 15.4972 36.6602C15.386 36.6602 15.2767 36.6895 15.1803 36.7451Z" fill="#AE7DF0"/>
<path d="M51.3422 13.2305H41.3086L48.8068 49.4171L51.0252 48.1363C51.1216 48.0806 51.2016 48.0006 51.2572 47.9043C51.3128 47.8079 51.3421 47.6986 51.3421 47.5874L51.3422 13.2305Z" fill="#3B88F5"/>
<path d="M39.4062 13.2305L45.1863 51.4088C45.2977 51.4088 45.4071 51.3795 45.5035 51.3238L48.8058 49.4171V13.2305H39.4062Z" fill="#28ABFA"/>
<path d="M39.0313 13.2305V47.5874C39.0312 47.6987 39.0605 47.808 39.1161 47.9043C39.1718 48.0006 39.2518 48.0807 39.3482 48.1363L44.8695 51.3239C44.9658 51.3795 45.075 51.4088 45.1861 51.4089V13.2305H39.0313Z" fill="#14CFFF"/>
<path d="M44.8698 9.49305L39.3482 12.6807C38.9256 12.9246 38.9256 13.5345 39.3482 13.7784L44.8698 16.966C44.9661 17.0216 45.0754 17.0509 45.1867 17.0509C45.2979 17.0509 45.4072 17.0216 45.5035 16.966L51.0245 13.7784C51.4469 13.5346 51.4469 12.9248 51.0245 12.6808L45.5035 9.49313C45.4072 9.43751 45.2979 9.40821 45.1867 9.4082C45.0754 9.40819 44.9661 9.43745 44.8698 9.49305Z" fill="#8AE7FF"/>
</g>
<mask id="mask2_2024_7550" style="mask-type:luminance" maskUnits="userSpaceOnUse" x="2" y="2" width="19" height="19">
<path d="M20.3418 2.4082H2.3418V20.4082H20.3418V2.4082Z" fill="white"/>
</mask>
<g mask="url(#mask2_2024_7550)">
<path d="M11.3418 2.4082C8.95539 2.4082 6.66461 3.357 4.97852 5.04422C3.29069 6.7321 2.34227 9.0212 2.3418 11.4082C2.3418 13.7942 3.29102 16.085 4.97852 17.7722C6.66461 19.4594 8.95539 20.4082 11.3418 20.4082C13.7282 20.4082 16.019 19.4594 17.7051 17.7722C19.3926 16.085 20.3418 13.7942 20.3418 11.4082C20.3418 9.02222 19.3926 6.73143 17.7051 5.04422C16.019 3.357 13.7282 2.4082 11.3418 2.4082Z" fill="url(#paint0_linear_2024_7550)"/>
<path d="M6.41593 11.3132C9.03999 10.1702 10.7894 9.41662 11.6641 9.05254C14.1644 8.0129 14.6833 7.83234 15.0222 7.82622C15.0967 7.82503 15.2626 7.84345 15.3709 7.93099C15.4609 8.00482 15.4862 8.10467 15.4989 8.17477C15.5101 8.2448 15.5256 8.4044 15.513 8.529C15.378 9.95213 14.7916 13.4056 14.4934 14.9996C14.3683 15.674 14.1194 15.9001 13.8789 15.9222C13.3558 15.9703 12.9592 15.5768 12.453 15.2451C11.6612 14.7258 11.2141 14.4026 10.4448 13.8959C9.55608 13.3104 10.1326 12.9885 10.6389 12.4626C10.7711 12.3249 13.0745 10.2303 13.1181 10.0403C13.1237 10.0165 13.1294 9.92794 13.0759 9.88126C13.0239 9.83443 12.9466 9.85045 12.8903 9.8631C12.8101 9.8811 11.5459 10.7175 9.09343 12.3723C8.73483 12.6189 8.40999 12.7392 8.11749 12.7328C7.79686 12.7259 7.17811 12.5512 6.71827 12.4018C6.15577 12.2186 5.70718 12.1217 5.74655 11.8105C5.76624 11.6485 5.98983 11.4827 6.41593 11.3132Z" fill="white"/>
</g>
</g>
</g>
<defs>
<linearGradient id="paint0_linear_2024_7550" x1="902.342" y1="2.4082" x2="902.342" y2="1802.41" gradientUnits="userSpaceOnUse">
<stop stop-color="#2AABEE"/>
<stop offset="1" stop-color="#229ED9"/>
</linearGradient>
<clipPath id="clip0_2024_7550">
<rect width="60" height="60" fill="white" transform="translate(0.341797 0.408203)"/>
</clipPath>
</defs>
</svg>
