<svg width="61" height="61" viewBox="0 0 61 61" fill="none" xmlns="http://www.w3.org/2000/svg">
<g clip-path="url(#clip0_2024_7652)">
<mask id="mask0_2024_7652" style="mask-type:luminance" maskUnits="userSpaceOnUse" x="0" y="0" width="61" height="61">
<path d="M50.3418 0.628906H10.3418C4.81895 0.628906 0.341797 5.10606 0.341797 10.6289V50.6289C0.341797 56.1518 4.81895 60.6289 10.3418 60.6289H50.3418C55.8646 60.6289 60.3418 56.1518 60.3418 50.6289V10.6289C60.3418 5.10606 55.8646 0.628906 50.3418 0.628906Z" fill="white"/>
</mask>
<g mask="url(#mask0_2024_7652)">
<path d="M50.3418 0.628906H10.3418C4.81895 0.628906 0.341797 5.10606 0.341797 10.6289V50.6289C0.341797 56.1518 4.81895 60.6289 10.3418 60.6289H50.3418C55.8646 60.6289 60.3418 56.1518 60.3418 50.6289V10.6289C60.3418 5.10606 55.8646 0.628906 50.3418 0.628906Z" fill="#EEF2F9"/>
<path d="M20.3379 25.5776H10.582C10.3374 25.5776 10.0983 25.5053 9.89476 25.3698C9.69117 25.2343 9.5322 25.0416 9.43783 24.816C9.34347 24.5903 9.31792 24.3419 9.36441 24.1018C9.4109 23.8617 9.52735 23.6407 9.69911 23.4666L19.579 13.4494C19.6943 13.3324 19.8318 13.2395 19.9834 13.1761C20.135 13.1127 20.2976 13.0801 20.4619 13.0801H25.3398C25.5512 13.0801 25.7591 13.134 25.9437 13.2369C26.1283 13.3398 26.2836 13.4882 26.3947 13.6679C26.5059 13.8477 26.5692 14.0529 26.5788 14.264C26.5883 14.4751 26.5438 14.6852 26.4493 14.8743L21.4474 24.8914C21.3445 25.0976 21.1861 25.271 20.9902 25.3922C20.7942 25.5134 20.5683 25.5776 20.3379 25.5776Z" fill="#A0EBFF"/>
<path d="M50.1014 25.5776H40.3455C40.1151 25.5776 39.8893 25.5134 39.6933 25.3922C39.4973 25.271 39.3389 25.0976 39.236 24.8914L34.2341 14.8743C34.1397 14.6852 34.0952 14.4752 34.1048 14.2641C34.1144 14.053 34.1778 13.8478 34.2889 13.6681C34.4001 13.4884 34.5553 13.34 34.7398 13.2371C34.9244 13.1342 35.1322 13.0801 35.3435 13.0801H40.2214C40.3857 13.0801 40.5484 13.1127 40.7 13.1761C40.8516 13.2395 40.989 13.3324 41.1044 13.4494L50.9843 23.4666C51.156 23.6407 51.2725 23.8617 51.3189 24.1017C51.3654 24.3418 51.3399 24.5903 51.2455 24.8159C51.1512 25.0415 50.9922 25.2342 50.7887 25.3697C50.5851 25.5053 50.346 25.5776 50.1014 25.5776Z" fill="#73C8F0"/>
<path d="M18.9512 24.3052L25.3399 13.0801H35.3438L41.7129 24.3052H18.9512Z" fill="#D2F0FF"/>
<path d="M39.0038 24.3028L29.2077 46.4353C29.0876 46.7065 29.0688 47.0118 29.1545 47.2958C29.2403 47.5797 29.425 47.8235 29.6751 47.9829C29.874 48.11 30.1051 48.1774 30.3411 48.1774C30.6889 48.1774 31.0323 48.0315 31.2754 47.7535L51.0352 25.1512C51.2399 24.9168 51.3489 24.6139 51.3405 24.3027L39.0038 24.3028Z" fill="#0073AA"/>
<path d="M21.679 24.3047H9.34225C9.33386 24.6158 9.44285 24.9187 9.64757 25.1532L29.4073 47.7554C29.5238 47.8887 29.6674 47.9955 29.8285 48.0686C29.9897 48.1418 30.1646 48.1795 30.3416 48.1794C30.571 48.1794 30.8022 48.1159 31.0076 47.9849C31.2577 47.8254 31.4424 47.5816 31.5281 47.2977C31.6139 47.0138 31.5951 46.7085 31.475 46.4373L21.679 24.3047Z" fill="#41B4E6"/>
<path d="M18.9512 24.3047L29.2079 47.4411C29.305 47.6608 29.464 47.8475 29.6653 47.9786C29.8666 48.1097 30.1016 48.1795 30.3419 48.1795C30.5821 48.1795 30.8172 48.1097 31.0185 47.9786C31.2198 47.8475 31.3787 47.6608 31.4759 47.4411L41.713 24.3047H18.9512Z" fill="#A0EBFF"/>
<path d="M30.332 24.3052H41.7129L35.3437 13.0801H30.332V24.3052Z" fill="#41B4E6"/>
<path d="M30.3418 48.1793C30.582 48.1793 30.8171 48.1096 31.0184 47.9785C31.2197 47.8475 31.3786 47.6608 31.4758 47.4411L41.7128 24.3047H30.3418V48.1793Z" fill="#73C8F0"/>
<mask id="mask1_2024_7652" style="mask-type:luminance" maskUnits="userSpaceOnUse" x="2" y="2" width="19" height="19">
<path d="M20.3418 2.62891H2.3418V20.6289H20.3418V2.62891Z" fill="white"/>
</mask>
<g mask="url(#mask1_2024_7652)">
<path d="M11.3418 2.62891C8.95539 2.62891 6.66461 3.57771 4.97852 5.26493C3.29069 6.95281 2.34227 9.24191 2.3418 11.6289C2.3418 14.0149 3.29102 16.3057 4.97852 17.9929C6.66461 19.6801 8.95539 20.6289 11.3418 20.6289C13.7282 20.6289 16.019 19.6801 17.7051 17.9929C19.3926 16.3057 20.3418 14.0149 20.3418 11.6289C20.3418 9.24293 19.3926 6.95214 17.7051 5.26493C16.019 3.57771 13.7282 2.62891 11.3418 2.62891Z" fill="url(#paint0_linear_2024_7652)"/>
<path d="M6.41593 11.5339C9.03999 10.3909 10.7894 9.63733 11.6641 9.27325C14.1644 8.23361 14.6833 8.05305 15.0222 8.04693C15.0967 8.04574 15.2626 8.06416 15.3709 8.1517C15.4609 8.22553 15.4862 8.32537 15.4989 8.39547C15.5101 8.4655 15.5256 8.62511 15.513 8.74971C15.378 10.1728 14.7916 13.6263 14.4934 15.2203C14.3683 15.8947 14.1194 16.1208 13.8789 16.1429C13.3558 16.191 12.9592 15.7975 12.453 15.4658C11.6612 14.9465 11.2141 14.6233 10.4448 14.1166C9.55608 13.5311 10.1326 13.2092 10.6389 12.6833C10.7711 12.5456 13.0745 10.451 13.1181 10.261C13.1237 10.2372 13.1294 10.1486 13.0759 10.102C13.0239 10.0551 12.9466 10.0712 12.8903 10.0838C12.8101 10.1018 11.5459 10.9382 9.09343 12.593C8.73483 12.8396 8.40999 12.9599 8.11749 12.9535C7.79686 12.9466 7.17811 12.7719 6.71827 12.6225C6.15577 12.4393 5.70718 12.3424 5.74655 12.0312C5.76624 11.8692 5.98983 11.7034 6.41593 11.5339Z" fill="white"/>
</g>
</g>
</g>
<defs>
<linearGradient id="paint0_linear_2024_7652" x1="902.342" y1="2.62891" x2="902.342" y2="1802.63" gradientUnits="userSpaceOnUse">
<stop stop-color="#2AABEE"/>
<stop offset="1" stop-color="#229ED9"/>
</linearGradient>
<clipPath id="clip0_2024_7652">
<rect width="60" height="60" fill="white" transform="translate(0.341797 0.628906)"/>
</clipPath>
</defs>
</svg>
